<svg xmlns="http://www.w3.org/2000/svg" width="287.253" height="195.733" viewBox="0 0 287.253 195.733">
  <g id="Group_1" data-name="Group 1" transform="translate(-175.78 -50.989)">
    <path id="Path_379" data-name="Path 379" d="M428.9,196.82a18.081,18.081,0,0,0,11.9-3.081,131.526,131.526,0,0,0,18.612-14.282,11.873,11.873,0,0,0,3.349-5.205c.612-2.015.267-3.1-1.626-4.077a5.516,5.516,0,0,1-2.789-3.568,38.769,38.769,0,0,0-1.3-4.237,25.292,25.292,0,0,0-9.029-10.571c-2.211-1.561-4.513-3.151-5.653-5.638a19.55,19.55,0,0,0-3.148-4.127,6.165,6.165,0,0,0-3.52-2.042,33.446,33.446,0,0,0-11.636-.872c-.287.049-.618.316-.834-.078s.132-.544.386-.718c1.261-1.581,3.013-2.617,4.441-4.015a7.044,7.044,0,0,0,2.367-3.374c.785-3.633.982-7.321-.434-10.808a17.785,17.785,0,0,1-1.459-8.388c.193-2.257-1.076-4.024-2.468-5.586a2.747,2.747,0,0,0-3.547-.626,32.152,32.152,0,0,1-8.482,2.6,41,41,0,0,0-8.059,2.222,17.649,17.649,0,0,0-8.39,6.794c-1.148,1.741-1.075,1.785-3.175,1.331-.325-.07-.7-.019-.823-.47.266-.652.907-1,1.342-1.517a5.361,5.361,0,0,0,1.321-5.093,10.847,10.847,0,0,0-.923-2.984c-1.513-2.337-1.035-4.59-.19-6.96.52-1.459,1.222-2.992.836-4.558-.878-3.564-1.077-7.239-1.935-10.8-.731-3.035-2.367-5.2-5.539-5.943a7.23,7.23,0,0,0-3.275-.709,51.876,51.876,0,0,0-10.633.406c-1.2-.375-2.535.336-3.881-.466a10.547,10.547,0,0,0,1.947-8.213c-.483-3.19-.872-6.4-1.428-9.574-.488-2.786-1.421-5.4-3.708-7.3-2.58-2.149-5.29-3.25-8.616-1.563a19.719,19.719,0,0,1-8.394,1.732c-2.258.081-4.578-.02-6.692.947a1.962,1.962,0,0,1-2.82-.743c-2.687-3.7-6.5-4.37-10.5-3.047A70.837,70.837,0,0,0,320.26,55.6h0l-.612.217a6.159,6.159,0,0,1-3.759.537,21.961,21.961,0,0,0-12.481,1.856c-7.073,3.291-11.429,8.613-11.886,16.648-.163,2.859-.168,5.727-.288,8.589A33.364,33.364,0,0,0,294.3,98.89a33,33,0,0,0-8.2,7.541c-.628.825-1.221,1.68-1.893,2.467-1.18,1.383-1.773,3.178-3.138,4.426-.88-.324-1.743-.685-2.635-.989-3.259-1.111-6.681-1.554-9.948-2.6a20.029,20.029,0,0,0,2.214-7.456,12.149,12.149,0,0,0-5.327-12.013,17.152,17.152,0,0,0-14.68-2.683,26.656,26.656,0,0,0-7.382,3.229c-.472.284-.919.891-1.541.128-1.04-1.276-2.614-1.7-4.028-2.35A13.834,13.834,0,0,0,222.881,91c-.413.381-.584,1.1-1.509,1.066-.7-1.047-1.134-2.626-2.6-2.933a3.222,3.222,0,0,1-2.218-1.909,10.258,10.258,0,0,0-6.944-5.059,20.662,20.662,0,0,0-10.32.518,12.9,12.9,0,0,0-5.8,2.461c-.915.086-1.225,1.165-2.142,1.365-1.221-1.533-1.641-3.535-3.069-4.861a9.669,9.669,0,0,0-5.251-2.616,14.964,14.964,0,0,0-7.255-.45,2.832,2.832,0,0,1,1.477,1.739c-1.462,4.111-.435,7.864,1.685,11.44a3.944,3.944,0,0,0,2.835,1.709,7.829,7.829,0,0,0,6.072-.817,5.492,5.492,0,0,1,5.123-.6c.7.194,1.561.142,1.433,1.385-.114,1.106-.35,1.882-1.61,1.9-1.219.019-2.438.023-3.658.028a19,19,0,0,0-5.185.508c-1.378.394-1.594,1.089-1.029,2.371.591,1.341,1.756,1.571,2.994,1.639a99.991,99.991,0,0,1,12.163,1.421c2.65.476,5.254,1.242,7.976,1.268a2.8,2.8,0,0,0,1.828-.054,15.012,15.012,0,0,0,7.362,2.724l9.492,2.1c3.714,1.155,7.421,2.332,11.149,3.438a1.849,1.849,0,0,1,1.216.855c1.743,3.123,4.518,5.215,7.271,7.337a9.324,9.324,0,0,0,6.294,2.109c4.506-.22,8.779-1.181,12.423-4.055l12.86,2.693c.424.282.949.377,1.252.883,1.185,1.986,3.148,2.939,5.185,3.748,2.985,1.185,6.148,1.817,9.156,2.973a55.142,55.142,0,0,0,6.044,2.414,26.65,26.65,0,0,1,5.2,2.321c2.729,1.348,5.062,3.342,7.851,4.558a86.9,86.9,0,0,0,8.157,6.119c.6.506,1.2,1,1.785,1.519,9.357,8.339,18.634,16.736,25.006,27.785a2.614,2.614,0,0,1,.044,3.185,26.51,26.51,0,0,0-3.526,13.2c-.068,4.495,2.076,6.716,7.02,6.631a18.388,18.388,0,0,0,4.626-.764c.98-.274,1.378.088,1.777.918.7,1.459.978,3.189,2.475,4.182-.1-.5.15-.534.549-.444,2.416.544,3.214.275,4.484-1.748a2.987,2.987,0,0,1,1.4-1.4c.767-.842,1.586-.161,2.316.008a9.825,9.825,0,0,0,10.323-3.351q2.109-2.42,4.221-4.825c1.958.832,3.141,2.46,4.324,4.066a17.254,17.254,0,0,0,6.242,5.406c1.712.843,3.58,1.38,3.184,3.879,2.306,6.145,5.921,10.73,13.555,11.673a29.013,29.013,0,0,0,4.951.563,21.75,21.75,0,0,1,7.117,3.394,42.031,42.031,0,0,0,4.525,3.915,7.332,7.332,0,0,0,.56.542c2.33,1.835,3.467,1.655,4.419-1.06a25.876,25.876,0,0,0,.813-15.3c-.314-1.359-.2-2.917-1.711-3.72.635-.206.284-.652.16-.956-.311-.762-.7-1.494-1.05-2.238a2.22,2.22,0,0,0-.588-.459c-.2-.067-.605.043-.414.335.7,1.066.545,2.611,1.861,3.32a8.381,8.381,0,0,0,.959,4c-.266,1.3.864,2.65-.081,3.931.725.167.374,1.048.328,1.093-.985.979-.709,2.242-.866,3.4-.005.038-.267.041-.409.061.142-.268.021-.443-.2-.583a.71.71,0,0,0-.245-.707,1.542,1.542,0,0,0-.53-1.157h0a.786.786,0,0,0-.189-.471,2.056,2.056,0,0,0-.757-1.39c.048-.428-.239-.7-.471-.989a4.022,4.022,0,0,0-.968-1.748h0a4.317,4.317,0,0,0-1.039-1.688h0l-.409-.457-.609.268.45.589h0a3.088,3.088,0,0,0,.978,1.631,3.2,3.2,0,0,0,.958,1.628c-.048.433.242.706.475,1.007a2.051,2.051,0,0,0,.741,1.313.624.624,0,0,0,.243.688,1.369,1.369,0,0,0,.384,1.045l.335.638.4,1.1c.246,2.009,1.11,4.019-.1,6.439-.908-4.426-2.335-8.2-5.95-10.675-1.011-1.028-1.759-2.392-3.359-2.67.531-.7-.242-.99-.546-1.319a55.789,55.789,0,0,1-6.783-9.149c-.515-.858-1.245-1.661-.884-2.856a1.471,1.471,0,0,0-.869-1.717c-1.727-.163-2.345-1.666-3.483-2.51.218-.345.025-.547-.252-.721a.748.748,0,0,0-.281-.719c-.076-.214-.151-.428-.227-.641l.012.013c.005-.534-.29-1.294.679-1.22a11.9,11.9,0,0,1,3.753.369c1.147-.533,2.243-1.569,3.569-.346a.526.526,0,0,0,.2.177.541.541,0,0,0-.017.5,10.368,10.368,0,0,0,.736,1.64,23.469,23.469,0,0,0,5.644,5.93c.177.639.813.787,1.242,1.155a.462.462,0,0,0,.65.018c.275-.261.009-.464-.15-.6-.344-.306-.147-.588-.025-.885,1.483.759,3.123,1.173,4.445,2.306C427.252,197.162,428.184,196.117,428.9,196.82ZM178.516,79.093a27.928,27.928,0,0,1,4.271.482c2.925,1.108,5.283,2.838,6.5,5.854a1.1,1.1,0,0,1,0,1.157c-1.243-.17-1.4-1.611-2.391-2.074a25.057,25.057,0,0,0-5.883-4.109,2.428,2.428,0,0,0-2.625-.15C178.047,79.81,177.01,79.142,178.516,79.093ZM189.8,88.675c-.406-.12-.764-.991-1.186-.2-.184.346.34,1.017.23,1.465a2.348,2.348,0,0,1-2.379,1.88c-4.3,1.485-6.6.394-7.958-3.823a5.578,5.578,0,0,1-.522-3.259c.281.212.523.5.92.483-.2.642-.075,1.035.7.922-.495.44-.088.566.31.7a7.233,7.233,0,0,0,6.452,4.8c-.1-.218-.146-.562-.311-.633a16.793,16.793,0,0,1-5.7-4.307c-.043-.047-.215.024-.363.073.441-.411.043-.53-.3-.667.161-.581-.148-.795-.593-.9.148-.257-.228-1.534.724-.395a14.87,14.87,0,0,0,7.584,4.649c-2.577-2.332-5.932-3.721-8.077-6.567l-1.148-2.131c.067-.151.134-.3.2-.454a28.476,28.476,0,0,1,8.087,4.945c.46.621.934,1.231,1.376,1.864,1.09,1.56,1.125.141,1.452-.461a1.633,1.633,0,0,1,.849,1.45C190.121,88.31,189.859,88.692,189.8,88.675Zm34.635,2.739c4.042-3.339,8.6-3.784,13.391-1.923,1.334.518,2.846.916,3.681,2.406-1.645,1.693-3.063,3.665-5.349,4.661a.354.354,0,0,1-.005.217.354.354,0,0,0,.005-.217c-.48-.148-1.066-.3-1.255.286-.174.538.575.327.8.626a.641.641,0,0,1,.312-.529c.27.105.407.3.291.576a.338.338,0,0,1-.548.158,5.275,5.275,0,0,1-4.889,3.724c-3.111.351-5.906-.04-7.9-2.75-1.2-1.633-1.147-2.617.132-4.421h0c.227-.1.545-.243.4-.509-.175-.312-.387-.076-.527.134C222.6,92.532,223.747,91.984,224.437,91.414Zm5.987,11.63c-.272.232-.494.583-.752.85-.544-.078-1.115-.462-1.645-.387.53-.074,1.1.309,1.644.386C229.93,103.627,230.152,103.276,230.424,103.044Zm-9.775-4.806c.789.472.822,1.315,1.364,1.872-.9.663-1.617.081-2.471.067A4.2,4.2,0,0,1,220.649,98.238Zm-26.349-6.6c-.712-.2-1.988-.067-1.823-1.478v-.044a.865.865,0,0,0,.719-.392v0c.65-.149.842.791,1.4.874C194.314,90.944,194.754,91.762,194.3,91.636Zm12.181,10.116a124.312,124.312,0,0,0-19.289-2.892c-2.054-.092-2.052-.136-3.57-1.436,1.355-.947,2.884-.665,4.277-.783,1.728-.146,3.476-.052,5.216-.055a2.241,2.241,0,0,1,1.028.06c2.282,1.327,4.931,1.654,7.3,2.717a25.494,25.494,0,0,0,6.376,2.1A2.047,2.047,0,0,1,206.481,101.752ZM196.33,94.936c.769.415.77,1.211.958,1.5C196.906,96.288,195.611,96.466,196.33,94.936ZM207.69,98.8a15.585,15.585,0,0,1-5.175-.424,6.894,6.894,0,0,1-4.308-2.9c-1.109-1.641-1.783-3.554-3.174-5.006.1-1.114-.854-1.762-1.226-2.671-.189-.463-.622-.83-.295-1.389,2.807.123,4.862,1.891,7.106,3.247a13.409,13.409,0,0,0,6.645,3.09,7.485,7.485,0,0,0,4.914-.033,19.017,19.017,0,0,0-4.526-.785,22.317,22.317,0,0,1-6.628-2.979c-1.714-1.589-4.059-2.062-6.186-3.389,1.49-1.223,3.311-1.292,4.742-2.16,3.442-.515,6.868-1.021,10.334-.034a9.82,9.82,0,0,1,5.934,4.772c1.117,1.923.223,5.816-1.623,7.751A9.786,9.786,0,0,1,207.69,98.8Zm1.083,3.351c.03-.144.059-.289.086-.434.963-.085,2.153-.545,1.975,1.29Zm2.984-1.024c-.052.019-.266-.178-.263-.271.018-.606.375-.6.8-.418C212.571,100.975,212.078,101.01,211.757,101.127Zm.575-.685,1.362-.37a.28.28,0,0,0,.179.118C213.367,100.344,212.929,101.035,212.332,100.442Zm1.057-1.31-1.59.014c1.771-1.588,3.919-2.493,4.616-4.725.317.1.492.634.939.32C216.823,96.912,215.875,98.709,213.389,99.132Zm4-4.415c.285-.26.155-.475-.087-.678a17.037,17.037,0,0,1,.375-4.088c3.021,1.879,3.707,7.077,1.351,9.3-1,.942-2.262.537-3.443.43.45-.5.939-.977,1.34-1.516A2.917,2.917,0,0,0,217.388,94.717Zm11.628,12.976a11.734,11.734,0,0,0-3.909-1.155,38.752,38.752,0,0,0-7.255-1.6,5.121,5.121,0,0,1-2.437-.7.436.436,0,0,0-.259.214.436.436,0,0,1,.259-.214c1.813-.819,3.674-1.549,5.421-2.492a2.836,2.836,0,0,1,2.709-.164,9.125,9.125,0,0,0,2.427.835c.959.152,1.161.89,1.267,1.691h0a3.968,3.968,0,0,0,1.556,2.523C229.179,106.974,229.312,107.261,229.016,107.693Zm2.746-.657-.54.061c-.275-.181-.7-.245-.7-.648,0-.093.422-.209.661-.272.3-.079.652-.069.738-.457a.78.78,0,0,0,1.154-.044c.314.123.633.255.716-.239.349.242.691.443.873-.186a.8.8,0,0,0-.9.108c-.3-.109-.663-.362-.713.207-.394-.591-.775-.5-1.148.054a1.351,1.351,0,0,0-.936-.392c-.059.048-.117.113-.18.118-.473.036-1.05.526-1.374.107-.283-.365.18-.892.355-1.335a1.1,1.1,0,0,0,1.222,1.09l-.035.006-.035.006h0l.047.008.019-.016c.936-.1.807-.755.671-1.412,1.328-.179,2.456.061,3.049,1.417.721.272,1.213.657.727,1.516-.287-.054-.581-.129-.708.243-.674-.34-1.321-.5-1.826.25C232.638,106.575,232.176,106.923,231.762,107.036Zm.913.8c-.068.47-.413.207-.672.17a.447.447,0,0,1,.63-.272q.124-.206.251-.411l.9.419A.682.682,0,0,1,232.675,107.84Zm2.089-.787c.3.112.644.345.7-.2l.394,1.216c-.369-.254-.734-.341-1.082.073l-.928-.415C233.96,107.263,234.66,107.528,234.764,107.053Zm-.4,2.06c-.643-.513.428-.49.462-.874l.876.415C235.523,109.558,234.743,109.419,234.36,109.113Zm1.675-.386c-.094.128-.213.084-.3-.081l.211-.427C236.093,108.36,236.187,108.522,236.035,108.727Zm30.114,2.187c-.872-.395-1.461.328-2.177.544a1.587,1.587,0,0,1,1.123,1.271c-3.619,5.757-9.374,6.847-15.46,6.728-3.661-.072-10.608-6.288-11.377-9.84-.419-1.934-.986-3.824-1.419-5.749l-.836-.4a1.263,1.263,0,0,1-.6-.315,1.268,1.268,0,0,0,.6.315c.408-.377.63.044.91.212.962.1,1.336,1.18,2.256,1.347,1.618,1.569,3.288,3.088,4.845,4.715,3.806,3.977,8.455,4.318,13.456,3.239.375-.081.84-.175.769-.732a23.311,23.311,0,0,0-2.591.02c-4.71.532-8.71-.686-11.965-4.325a13.6,13.6,0,0,0-4.22-3.463c-.408-1.039-1.667-1.054-2.266-1.854.277-.465.74-.46,1.161-.471,4.469-.124,8.646,1.315,12.921,2.6a1.184,1.184,0,0,0-.74-.8,20.656,20.656,0,0,0-10.45-2.648c-1.262,0-1.213-.688-1.047-1.793-1.221,1.19-2.1,2.309-3.635,2.278-.023-.171-.132-.408-.058-.5,3.544-4.508,7.008-9.078,12.609-11.337,4.477-1.805,9.082-2.2,13.423-.236,5.363,2.432,9.058,6.965,7.618,13.786A19.152,19.152,0,0,1,266.149,110.914Zm9.41,7.888-9.883-2.343c-.306.707-.709-.01-1.06.039a1,1,0,0,1,1.055-.08c1.985-1,4.34-1.158,6.083-2.7v-.009h0l.642-.4c2.468-1.851,4.754-.4,7.077.389Q277.514,116.25,275.559,118.8Zm158.448,75.822a18.257,18.257,0,0,1-7.606-3.6,11.414,11.414,0,0,1-2.978-5.988c-.268-1.338-.572-2.669-.86-4,.857.159,1.227.892,1.732,1.467,1.025,1.165,1.963,2.424,3.094,3.475,3.9,3.623,8.223,6.279,13.876,5.581A10.514,10.514,0,0,1,434.007,194.624Zm27.091-19.1a20.664,20.664,0,0,1-3.788,4.206,19.97,19.97,0,0,1-3.828,3.033,7.54,7.54,0,0,0-3.013.419c-.286-.029-.589-.106-.738.23a2.274,2.274,0,0,0-1.672-.245c-4.467.256-8.4-1.4-12.258-3.373-1.786-1.215-3.51-2.534-5.37-3.622-3.348-1.958-6.9-3.266-10.9-2.7-.4.057-.89.307-1.123-.237a1.076,1.076,0,0,1,.344-1.4,9.751,9.751,0,0,1,1.377-.725,12.3,12.3,0,0,1,8.667-.46c3.507.93,6.962,2.054,10.439,3.094a18.676,18.676,0,0,0,5.5,1.393c3.539.525,7.12,1.094,10.676.006.311.109.69.4.74-.194.392.587.773.31,1.153-.067.34.194.609.194.716-.24.324.173.661.379.7-.207.4.621.779.41,1.158-.079.3.08.659.339.712-.221C460.936,174.5,461.663,174.638,461.1,175.52Zm-6.345-14.938c1.023,1.865,2.29,3.7,1.882,6.029l-.082.09c.239.228.6.413.7.692a6.4,6.4,0,0,0,3.632,4.07,1.551,1.551,0,0,1,.968,1.651c-.04.857-.885.623-1.342.919l.005.007c-.26-.028-.511-.03-.658.242a.887.887,0,0,0-1.163.037c-.3-.082-.58-.122-.71.245-.316-.146-.667-.389-.7.226-.393-.6-.776-.361-1.157.057-.3-.139-.643-.38-.708.122-.166-.448-.631-.271-.955-.269-1.382.007-2.764.125-4.144.1-3.831-.073-7.473-1.217-11.169-2.052q-3.642-1.265-7.284-2.527a18.506,18.506,0,0,0-12.87-.2l.438-.921c.665.21.821-.237.935-.738.853-.174,1.854-.163,1.841-1.43,1.014.674,1.51-.142,2.078-.751.355.251.591.169.709-.243.352.244.586.159.7-.258,1.285.464,2.487-.336,3.768-.239a18.293,18.293,0,0,1,6.922,1.974c4.508,2.269,9.013,2.872,13.612.184a9.554,9.554,0,0,1,6.551-.9l.082-.09c-.859-1.3-2.209-1.23-3.494-1.155a10.17,10.17,0,0,0-4.4,1.472,10.032,10.032,0,0,1-9.467.423c-1.03-.452-2.069-.884-3.1-1.329a14.725,14.725,0,0,0-9.591-1.165c-.4.1-1.073-.011-.925.747-.117-.13-.159-.355-.47-.245s-.193.329-.213.508c-.129-.126-.162-.374-.486-.258s-.186.34-.215.522c-1.023-.688-1.511.164-2.09.752-.85.184-1.68.394-1.843,1.444-.663-.19-.919.005-.935.711-.744-.343-.691.387-.917.74a1.177,1.177,0,0,1-1.392-.674,4.744,4.744,0,0,0-1.73-2.5q-.373-.739-.745-1.479c.01-.009.02-.014.03-.023l-.046-.01h0v.048a5.644,5.644,0,0,0-3.1-.2.675.675,0,0,1-.166-.893,20.166,20.166,0,0,1,3.321-5.656c3.463-3.681,7.766-4.492,12.552-3.622,1.189.216,2.366.5,3.55.746a10.384,10.384,0,0,0,7.549-.994c.547-.315,1.167-.267,1.667-.608h0c.406.146.831.6,1.191-.037a38.039,38.039,0,0,0,6.573,1.971l2.556,1.819a9.661,9.661,0,0,1-9.141,1.44,22.6,22.6,0,0,0-4.856-.775c-4.343-.4-8.054.761-10.92,4.176a15.068,15.068,0,0,1-8.36,2.309c-.787,0-1.66-.366-2.373.288,3.894.9,7.612.745,10.923-1.842,4.333-4.3,9.592-4.462,15.007-3.054a11.766,11.766,0,0,0,9.472-1.047C452.219,157.891,453.555,158.4,454.753,160.582Zm-2.928-3.758c-.881.424-1.24-.551-1.91-.713a13.587,13.587,0,0,1-1.928-.777c-2.182-.88-4.36-1.782-6.8-1.5h0l-.891-.519c1.375-1.025,2.9-.831,4.488-.7C447.861,152.861,449.979,154.569,451.825,156.824Zm-19.264-16.233c2.821.376,5.443,1.087,7.113,3.717.52.819.374,1.249-.443,1.607a11.312,11.312,0,0,1-7.164.622,37.226,37.226,0,0,0-6.94-1.131c-.245.051-.578.138-.634-.165-.065-.345.253-.322.5-.275,2.25-1.285,4.789-2.1,6.625-4.057A1.031,1.031,0,0,1,432.561,140.591Zm-2.044-.234a16.291,16.291,0,0,1-4.448,2.6c-1.7.671-3.419,1.322-5.105,2.036-3.719,1.575-6.112,4.5-7.984,7.943h0c-1.622,1.6-1.862,3.709-2.146,5.8-.15.464-.613.917-.04,1.419.561-.371.512-.987.623-1.535a24.21,24.21,0,0,1,1.774-4.71c.674-.9,1.4-1.778,2.014-2.72,2.736-4.167,6.8-5.166,11.4-4.721a31.88,31.88,0,0,1,4.586.97,12.089,12.089,0,0,0,8.661-.635c.554-.278,1.051-.555,1.566.132,1.034,1.381,2.126,2.72,3.3,4.206a6.848,6.848,0,0,0-5.582,1.23,10.125,10.125,0,0,1-8.441,1.7c-1.454-.264-2.882-.718-4.345-.873-4.549-.482-8.689.386-11.888,3.986a2.193,2.193,0,0,0-.518.7.814.814,0,0,0-.414.355,14.4,14.4,0,0,0-1.856,2.751,2.093,2.093,0,0,1-1.836,1.564,15.132,15.132,0,0,1,1.963-11.23,27.625,27.625,0,0,1,7.335-8.689C422.412,140.279,426.116,139.967,430.517,140.357Zm-30.324,48.592c.549.849.932,1.442,1.353,2.091-.538.755-1.47.751-2.363.845a.235.235,0,0,0-.232-.1c.117-.261.234-.521.35-.782h0a2.888,2.888,0,0,0,.574-.217c-.069-.42-.4-.4-.728-.357l-.776.255h0a1.833,1.833,0,0,1-1.472.189,1.8,1.8,0,0,1-1.082-1.34.549.549,0,0,0-.746-.484c-2.224.9-3.485-1.32-5.339-1.671-.42-.079.334-.455.525-.772.3.1.566.111.7-.245,1.19.228,2.551-.031,3.326,1.325.321.562.939.109,1.414.2.625.121,1.379-.043,1.6.818.866.718,1.923.352,2.871.658A1.238,1.238,0,0,0,400.193,188.949Zm-1.243,2.831a1.751,1.751,0,0,1-.394-.5A1.715,1.715,0,0,0,398.95,191.78Zm-8.729-5.267c-.936-.771-2.21,1.087-3.015-.521.173-.52,1.005-.314,1.363-.8.76.371,2.019-.268,2.311,1.052C390.567,186.08,390.32,186.1,390.221,186.513Zm8.107.463c-1.7.1-3.156-.762-4.668-1.309-2.023-.732-3.95-1.726-5.945-2.542a3.425,3.425,0,0,1-1.422-1.422.187.187,0,0,1-.09.039.187.187,0,0,0,.09-.039c.052-.336.248-.756-.348-.71.817-1.04.375-2.449,1-3.545.849-.836,1.723-1.647,2.537-2.516a2.029,2.029,0,0,1,1.846-.574c-.464.445-.357.686.331.72a3.517,3.517,0,0,0,2.406,3.367c1.409.585,1.423.6,2.21,2.121a2.766,2.766,0,0,0,3.068,1.408c.829-.091,1.611-.575,2.486-.311-.62,1.708,1.123,2.537,1.564,3.9-.644.3-1.413-.028-1.928.507A4.117,4.117,0,0,0,398.328,186.976Zm-16.013-10.55c.978-.212,1.008-1.075,1.206-1.824.54.148.528.73.835,1.061a3.857,3.857,0,0,0,.56,1.763c.718,1.088.367,2.464.956,3.587a.62.62,0,0,0,.174.69c-.713.669-1.4.239-2.146.017a9.769,9.769,0,0,0-5.022-.648,6.234,6.234,0,0,1,1.581-1.979A6.558,6.558,0,0,0,382.315,176.426ZM354.19,158.918a9.414,9.414,0,0,0,7.635,3.124,5.55,5.55,0,0,0,3.086-.2,64.833,64.833,0,0,0,8.328-3.038l.9.471-2.567,1.945h0l-.664.52-1.7,1.117a22.012,22.012,0,0,1-4.586,1.539,14.1,14.1,0,0,1-11.01-3.356A3.69,3.69,0,0,1,354.19,158.918ZM343.5,135.531c.02,1.639-.023,3.281.072,4.915.235,4.066,1.678,7.57,5.007,10.106a23.529,23.529,0,0,1,2.576,2.533c-.022.388.086.893-.6.734a6.647,6.647,0,0,1-2.988-2.032c.155-.612.043-1.014-.68-.937.4-.394-.028-.51-.291-.681,0-.081.013-.175-.028-.215-2.017-2.026-4.534-3.518-6.259-5.858h0a.266.266,0,0,0,.105-.368c-.117-.323-.332-.2-.514-.22.126-.128.373-.163.258-.485s-.319-.2-.495-.211c.65-.4.4-.788-.059-1.172.274-1.938.612-3.87.8-5.816a6.773,6.773,0,0,0-.308-3.8c.067-1.742,1.375-1.287,2.39-1.35h0a.835.835,0,0,0,.323,1.077c.055.035.228,0,.243-.035a1.114,1.114,0,0,0-.31-1.136c-.048-.06-.152-.076-.231-.112.666-2.065.671-2.075-1.078-2.954-.983-.494-1.986-.947-3.516-1.672,1.66-.465,2.552-1.449,3.929-1.209h0l.441.333c.444,1.8,2.015,2.805,2.987,4.231.739,1.085,1.59,1.891,3.03,1.662a21.338,21.338,0,0,1,3.193,10.81c.005,2.758,1.468,4.921,3.311,6.881,1.228,1.306,1,4.823-.445,5.866-1.113.806-1.654-.267-2.163-1.071a8.4,8.4,0,0,0-2.927-3.581c-3.151-2.408-4.411-5.719-4.786-9.49-.163-1.642-.257-3.291-.382-4.936h0a3.651,3.651,0,0,0-.476-2.2C342.747,133.873,343.443,134.727,343.5,135.531Zm-10.055,5.534a101.705,101.705,0,0,1,.266-10.329c1.951.346,4.023.025,5.848,1.064a39.657,39.657,0,0,1-.648,7.4,7.213,7.213,0,0,0,.035,2.046c.024.3.159.553.479.488-.6.377-.383.741.162,1.1q-.366.525.244.7c-.247.359-.094.576.276.717,1.146,3.056,3.737,4.545,6.428,5.926-.479.43-.02.545.252.723a.92.92,0,0,0,.685.91c-.175.151-.35.365-.527.368A13.144,13.144,0,0,1,333.442,141.065Zm.127,5.09c-.078-.009-.172.008-.23-.031-.21-.139-.6-.238-.219-.563C333.386,145.666,333.607,145.807,333.569,146.155Zm-2.734-17.9c.126-.221.2-.523.388-.648.959-.636,1.211-2.276,2.3-2.319.834-.033,1.673,1.065,2.575,1.533,1.585.822,3.221,1.547,5.058,2.419-2.754,1.429-5.345.7-7.931.144h0Zm10.529-21.63a8.983,8.983,0,0,0-1.378,2.7c-.61.722-1.175,1.489-1.841,2.156-.947.947-1.8,2.074-3.31,2.188-2.864-.555-4.23-2.358-4.647-5.193a8.428,8.428,0,0,1,1.676-7.034,6.4,6.4,0,0,1,7.164-1.376c1.424.914,2.6,2,2.777,3.828.023.229.149.281.3.271C341.281,104.734,342.139,105.9,341.364,106.63Zm-7.485,10.113c1.186-1.026,2.386-2.036,3.57-3.065a11.065,11.065,0,0,0,3.318-3.967,28.04,28.04,0,0,0,1.9-3.616c.393-.671.89-1.07,1.588-.314q-.288,1.809-.578,3.618a30.988,30.988,0,0,1-5.317,9.027,2.164,2.164,0,0,0-1.664.786,14.685,14.685,0,0,1-2.08.091,1.837,1.837,0,0,1-1.476-1.33C332.9,117.344,333.5,117.072,333.879,116.743Zm4.954,3.712a1.019,1.019,0,0,0,.77-.844c.963-.588.409-1.746.995-2.54a34.84,34.84,0,0,0,3.729-7.409,5.917,5.917,0,0,0,.584-3.987c-.069-1.758-1.328-1.617-2.494-1.624.614-.737.023-1.646.313-2.551a16.94,16.94,0,0,1,6.556,5.328,5.126,5.126,0,0,1,.675,4.97c-2.465,6.327-6.158,11.469-13.389,12.878a7.827,7.827,0,0,1-1,.04C336.216,122.82,337.9,121.908,338.833,120.455Zm50.441,6.751c.455.933.943,1.851,1.455,2.754a18.153,18.153,0,0,1,2.6,7.82,43.518,43.518,0,0,1-.075,8.285c.079.276.159.552.238.828-.309.378.311,1.176-.583,1.289a.5.5,0,0,0-.237-.66,3.962,3.962,0,0,0,.076-.474c-.245-.115-.372-.527-.651-.556.181-.239-.05-.568-.173-.776a36.9,36.9,0,0,0-3.938-5.725c-.231-.263-.4-.159-.605-.07a7.193,7.193,0,0,0-3.119-4.358,1.12,1.12,0,0,0-.959-1.63c.567-.72-.02-1.039-.5-1.394.216-.668.114-1.085-.7-.941.129-.123.372-.158.256-.479s-.33-.193-.509-.211c.128-.127.378-.159.262-.485s-.335-.189-.515-.212c.125-.13.38-.158.264-.485s-.329-.19-.508-.209c.761-.4.566-.791-.046-1.171a2.837,2.837,0,0,0,.017-2.321c1.435-2.513,3.883-3.669,6.555-5.105a11.067,11.067,0,0,0,.943,5.2c.1.23.22.519.448.578A.478.478,0,0,0,389.274,127.206Zm4.311,27.861a.832.832,0,0,0,.348.225.645.645,0,0,0-.343.251l-.039-.462c-.216-.233-.3-.727-.692-.612.021-.1.025-.21.036-.316l-.7.186.4.271a.01.01,0,0,0-.005,0,.429.429,0,0,0,.045.714c-.274.249-.484-.1-.733-.079.164-.4-.682-.593-.3-1.04-.83-.055-1.135-.819-1.629-1.3a15.164,15.164,0,0,0-3.324-2.822l-.393.807,5.072,4.65h0l1.641,2.057c.121.671.783,1.164.657,1.906a2.18,2.18,0,0,1-1.5.347c-.209-.008-.408-.3-.611-.456a10.426,10.426,0,0,0-4.555-5.075,14.99,14.99,0,0,0-7.08-3.393c-1.336-.341-2.672-.678-4.007-1.024-3.278-.849-6.5-1.781-9.249-3.93a17.675,17.675,0,0,1-5.137-7.062,6.033,6.033,0,0,0-3.242-3.526c2.578-5,2.522-4.131,7.055-2.461,3.969,1.463,6.658,4.241,8.8,7.707a24.365,24.365,0,0,0,9.105,8.32c1.048.591,2.035,1.29,3.049,1.94l.393-.807a23.756,23.756,0,0,0-4.694-3.25,23.693,23.693,0,0,1-7.07-7.183,24.614,24.614,0,0,0-5.311-6.031c-2.318-1.751-5.009-2.222-7.831-2.934a3.117,3.117,0,0,1,3.615-1.623,21.623,21.623,0,0,1,2.245,1.224c1.884,1.3,3.877,2.44,5.827,3.642a4.433,4.433,0,0,0,2.38,2.284c-.187.642.2.839.721.932-.176.636.2.842.736.92a1.216,1.216,0,0,0,.981,1.611,1.2,1.2,0,0,0,.986,1.619c.832,2.784,2.872,4.562,5.253,5.909a22.115,22.115,0,0,1,6.341,5.287c.246.3.4.989.955.891-.128.211.047.553-.046.779l.46.18.7-.186.174-.467-.913-.475c.175-.384-.1-.614-.294-.888a20.38,20.38,0,0,0-6.6-5.823,15.189,15.189,0,0,1-4.634-4.124c-.343-.457-.437-1.372-1.389-1.1.361-.95-.026-1.451-.971-1.617.289-.755-.044-1.311-.97-1.62.186-.67-.011-.927-.718-.935.186-.663-.018-.916-.747-.924a2.743,2.743,0,0,0-2.363-2.279.44.44,0,0,0-.125-.6c-2.453-1.849-4.846-3.793-7.808-4.816.488-1.175,1.687-1.082,2.61-1.334a13.329,13.329,0,0,1,5.134-.324,14.748,14.748,0,0,0,7.3-.618c.014.585-.007,1.175.056,1.755.031.286.173.543.491.466-.609.377-.416.741.163,1.1-.271.361-.188.6.242.707-.254.352-.17.584.247.7-.253.354-.17.588.258.7-.206.659-.1,1.072.7.934-.767.789-.028,1.055.521,1.387a1.4,1.4,0,0,0,.985,1.63,9.5,9.5,0,0,0,3.141,4.4,64.925,64.925,0,0,0,4.337,6.679,1.764,1.764,0,0,0,.347,1.164h0q.1.276.194.55a4.474,4.474,0,0,0,.706,1.8c.184.934.377,1.866.547,2.8.054.295.067.6-.258.7C394.078,153.9,393.68,154.536,393.585,155.067Zm-47.924-28.228.505.66q.123.544.247,1.09c.2.243.878.375.442.765-.279.25-.592-.319-.839-.591-1.32-1.185-2.163-2.834-3.693-3.816.233-.337-.019-.531-.246-.732a2.942,2.942,0,0,1,1.433-.9c.256-.069.423.105.327.408l-.014.042c.01-.016.02-.025.031-.04l-.008,0a13.529,13.529,0,0,1,2.544-3.353c.834.187.615.96.762,1.484a21.964,21.964,0,0,0,4.586,8.139,12.687,12.687,0,0,0,4.6,3.349c.829.376,1.366.7.773,1.712a7.346,7.346,0,0,0-.542,5.34,16.854,16.854,0,0,1-.324,7.921,8.625,8.625,0,0,1-3.551-6.983,17.893,17.893,0,0,0-2.707-9.42,7.179,7.179,0,0,0-.66-.785c-.553-1.505-1.8-2.536-2.621-3.861h0c-.155-.195-.311-.39-.466-.586-.048-.345-.149-.673-.584-.489C345.581,126.226,345.656,126.615,345.661,126.839Zm40.311-6.547h0l-.135-.438c.262-.065.292,0,.118.211C385.918,120.107,385.963,120.214,385.972,120.292Zm0,0c-1.936.676-3.328,2.154-4.868,3.389a2.992,2.992,0,0,1-3.734.432c-2.141-1.111-4.088-2.52-6.268-3.628a1.178,1.178,0,0,1,1.245-.232,17.052,17.052,0,0,0,6.974-.2,24.346,24.346,0,0,1,5.175-.464C385.023,119.605,385.77,119.455,385.969,120.293Zm-8.342,4.686c-.441.854-1.092.508-1.645.452-3.006-.3-6.059.02-9.04-.714-.368-.091-.962-.395-1.338.142a6.7,6.7,0,0,0-4.2-.663c-2.7.17-4.457-1.1-6.009-3-.274-.335-.581-.642-.874-.962a6.237,6.237,0,0,0-1.667-2.389h0l-.623-.732a11.474,11.474,0,0,0-2.254-2.046c.771-1.294.609-3.014,1.863-4.088a5.015,5.015,0,0,0,2.168.286,9.6,9.6,0,0,1,5.044,2.461,25.043,25.043,0,0,0,7.925,4.887,11.545,11.545,0,0,1,2.783,1.9A36.517,36.517,0,0,0,377.627,124.979ZM349.159,116.2a1.636,1.636,0,0,0-.005.515l.8.37h0c-.078.508.341.707.617,1,.391.794.143,2.014,1.43,2.212-.125.133-.386.159-.268.491s.328.193.507.21c-.7.4-.478.787.053,1.167a.935.935,0,0,0,.5,1.4c-.332,1.894.827,3.144,1.908,4.445,1.326,1.6,3.362,1.527,5.067,2.233a10.266,10.266,0,0,1-1.673,2.418,18.792,18.792,0,0,1-7.747-6.8,21.562,21.562,0,0,1-2.121-4.452c-.637-1.774-.67-3.382.924-4.695A1.691,1.691,0,0,1,349.159,116.2Zm9.375,12.47c-2.668-.409-4.027-2.166-4.941-4.476-.107-.271-.118-.771-.549-.725.441-.283.122-.738.019-1.109-.083-.3-.274-.394-.505-.333.519-.36.288-.706-.246-1.048.252-.353.168-.587-.241-.705.315-.406-.228-.764-.1-1.159-.446-.311-.4-1.019-.977-1.227.068-.557-.346-.711-.738-.882l-.061.016.061-.016c.528-.275.876.143,1.283.332-.017.494.393.666.7.919-.051.254.241.592-.019.794.854.032.84,1.131,1.491,1.413,1.785,3.029,1.921,3.142,8.786,7.22a6.3,6.3,0,0,1-2.068,1.861A7.4,7.4,0,0,0,358.534,128.671Zm2.967-3.394c1.368-.672,2.834.41,4.075-.354.271.468.994.305,1.2.838C364.936,127.235,363.265,126.529,361.5,125.277Zm-9.188-15.318c.282-.41.562-.081.836.032.024.01,0,.143-.005.218C352.886,110.07,352.491,110.323,352.313,109.959Zm-.072.373c-.017.062-.119.1-.182.149-.4-.142-.92-.181-.7-.839l.919.331A1.7,1.7,0,0,1,352.241,110.332Zm36.626,8.674c-.508.1-1.024.329-1.535.067-2.335-1.2-4.823-.94-7.169-.369-5.039,1.226-9.692,0-14.238-1.895a26.72,26.72,0,0,1-4.625-2.916c-2.14-1.472-4.071-3.254-6.479-4.324a4.258,4.258,0,0,0-3.254-.513c-.111-.131-.275-.243-.326-.394a13.417,13.417,0,0,0-6.98-7.682c-.2-.106-.487-.166-.454-.506.658-.519,1.5,0,2.181-.367l6.77.953c1.493.446,2.971.953,4.483,1.325,3.7.909,6.754,3.107,10.016,4.888,3.955,2.159,8.011,3.782,12.665,3.081a11.531,11.531,0,0,1,3.831.554,8.027,8.027,0,0,0,3.043.932l3.584,1.81a7.8,7.8,0,0,0,3.266,2.052A7.181,7.181,0,0,1,388.867,119.006ZM363.1,150.4c-1.313-.336-2.28-1.426-3.634-1.673.3-.724-.276-.781-.727-.933.059-.882-1.284-1.572-.357-2.712,1.206,1.145,1.707,2.8,3.134,3.621.3.835,1.082,1.086,1.757,1.468A.265.265,0,0,0,363.1,150.4Zm-5.4-2.606c.1-.544.618,0,.981.068-.162.622.288.777.77.907a5.021,5.021,0,0,0,4,2.654,9.134,9.134,0,0,0,4.271.855c1.4.564,2.941.306,4.35.75s-.084.682-.111,1.037c-.34-.227-.57-.144-.685.259q-.523-.364-.7.249-.523-.364-.7.249-.523-.364-.7.249c-.35-.24-.582-.154-.7.242-.315-.143-.668-.389-.7.232-.4-.4-.68-.43-.7.259-.129-.128-.173-.366-.492-.254-.214.075-.229.193-.219.315-.212-.511-.771-.229-1.118-.209a11.235,11.235,0,0,1-5.694-1.167c-.919-.451-1.865-.846-2.8-1.267a1.042,1.042,0,0,0-.135.19,1.092,1.092,0,0,1,.135-.19C356.329,151.3,357.357,149.6,357.693,147.8Zm-1.174,5.835c.979.552,1.92,1.189,2.943,1.64,2.206.97,4.468,1.728,6.91.854.335.174.608.179.727-.243.347.239.578.155.7-.244.338.2.6.2.7-.241.341.217.675.415.7-.251.125.127.161.368.481.254s.192-.329.213-.507c.129.126.162.374.486.258s.193-.329.213-.507c.129.126.162.373.486.258s.193-.329.213-.507c.13.127.168.373.491.259.293-.1.215-.285.208-.45.329.775.954.231,1.428.2a13.531,13.531,0,0,1,7.262,1.441,20.433,20.433,0,0,1,4.919,3.68,1.163,1.163,0,0,1-1.2-.243c-2.81-2.1-6.007-2.051-9.261-1.721h0l-1.449.285a8.888,8.888,0,0,0-2.973.887c-3.038,1.037-5.989,2.39-9.286,2.43a35.451,35.451,0,0,1-3.734-.967C354.3,158.632,353.916,156.632,356.519,153.634Zm20.271,7.345c-.393-.623-.777-.175-1.163.064-.423.054-.972-.048-.953.557-.18-.344-.594-.063-.868-.156a1.185,1.185,0,0,1-.947.6.79.79,0,0,0-.05-.122,1.205,1.205,0,0,0,.047.122l-.021,0c-.245.525-1.094.474-1.153,1.176-.371-.333-.74.244-1.111.053l.5-.721c.461-.013.661-.393.936-.667.262.037.613-.281.806.033-.188-.609.522-.628.808-.925a16.263,16.263,0,0,1,2.938-1.8,9.018,9.018,0,0,1,8.43,1.4,1.307,1.307,0,0,0-1.137.278c-.516-.354-1.023-.794-1.644-.206-.411-.41-.819-.7-1.19.033q-1.3-1.156-2.322.048c-.408-.692-.8-.539-1.189.015C377.165,160.561,376.822,160.341,376.79,160.979Zm-6.721,3.226c-.38-.343-.753.263-1.133.047l.514-.708,1.026-.216Q370.273,163.768,370.069,164.205Zm-14.88-1.136c3.005,1.75,6.146,2.8,9.676,2.026,1.424.192,2.6-.881,4-.806l-.427.91a8.322,8.322,0,0,0-4.152,2.657,1.466,1.466,0,0,0-1.625.96c-.355-.247-.591-.161-.707.264l-3.992-.107c-2.352-.185-3.209-1.947-3.927-3.8a19.693,19.693,0,0,1-.625-2.469C354.16,162.024,354.659,162.76,355.189,163.069Zm5.616,7.207c.081-.677,1.408-.172,1.2-1.128.116.13.16.353.468.243.336-.12.182-.345.216-.528.889.4,1.52.012,1.617-.989a5.177,5.177,0,0,0,4.152-2.656c.907.426,1.463.1,1.632-.967.826.423,1.476.033,1.624-.981,1.375.292,2.143-.679,3-1.457.624.163,1.046.073.959-.652.385.563.763.317,1.14-.085.348.228.6.2.712-.232a.77.77,0,0,0,1.164-.042,2.766,2.766,0,0,0,2.331-.05c.4.177.807.495,1.184-.019.519.315,1.03.705,1.641.193.689.253,1.293.95,2.131.42h0l1.271.8c-.165.852-.873.755-1.429.812a47.619,47.619,0,0,0-18.164,5.921,14.445,14.445,0,0,1-5.357,1.9c-.482.052-1.189.434-1.476-.374-.3.778-.93-.147-1.319.174C359.86,170.082,360.263,169.816,360.8,170.276Zm25.961-10.724a9.861,9.861,0,0,0-.723-.738,3.977,3.977,0,0,0-.447-.621c-4.967-4.678-11.1-6.216-17.677-6.551-1.69-.081-2.954-1.086-4.271-1.974l-1.222-1.167a26.984,26.984,0,0,1-4.047-6.224,7.716,7.716,0,0,1-.384-6.236c1.409.885,1.983,2.346,2.636,3.767a17.51,17.51,0,0,0,9.581,9.45,50,50,0,0,0,9.286,2.483,24.454,24.454,0,0,1,7.083,3.341,24.8,24.8,0,0,1,4.725,4.739C388.649,161.873,388.61,161.869,386.766,159.552Zm9.329,1.241c-.68,1.255-1.851,1.867-2.772,2.7a5.879,5.879,0,0,0-2.241,5c.14,2.316-.408,4.424-2.6,5.854a4.967,4.967,0,0,0-2.32,2.73c-.231.088-.427.33-.717.17a2.6,2.6,0,0,0-.322-1.872c-.134-1.295-.355-2.587-.387-3.885C384.585,165.244,389.413,160.632,396.1,160.793Zm-.852-3.2a.531.531,0,0,1,.285.727l.6.506c-.118.265-.1.782-.556.568-.514-.242-.585-.66-.14-1.059C394.972,158.231,395.188,157.884,395.243,157.594Zm4.507,1.6c1.378.049,2.68-.537,4.087-.4a4.838,4.838,0,0,1,4.447,4.588c-.008,2.372-.9,4.577-1.606,6.8-.194.607-.825,1.127-1.121.053-.182-.66-.762-.6-1.074-.972a2.143,2.143,0,0,0-2.585-.7c-1,.435-.615,1.5-.714,2.329-.186,1.563.729,3.21-.7,4.818,1.637.138,2.72-.731,4.214-.973-.786,2.985-2.224,5.06-5.053,5.962-.849.271-1.79.435-2.36-.454a1.617,1.617,0,0,1,.445-2.3,7.091,7.091,0,0,0,.958-1.234c.422-.079,1.13-.428.9-.617-.567-.467-.591-1.8-1.356-1.521a4.909,4.909,0,0,1-4.9-.54c1.142,2.166,2.438,2.622,4.156,2.075-1.379,1.719-2.767,1.914-4.262.554-.557-.507-1.04-1.094-1.556-1.647a.591.591,0,0,0-.255-.7,3.254,3.254,0,0,1,.161-1.233,7.048,7.048,0,0,0,.678-4.531,5.188,5.188,0,0,1,1.809-4.193C395.887,162.567,397.849,160.911,399.75,159.194Zm-2.01-2.008a11.373,11.373,0,0,1-.655-3.024l-.072-.725a.7.7,0,0,1,.034-.755c.6-.046.318.368.286.652a.5.5,0,0,1,.278.691c.673,1.28.91,2.8,1.977,3.853.445.438-.274.882.061,1.238A2.491,2.491,0,0,1,397.74,157.186Zm16.5-13.708c.31.46.64.03.945-.081.334-.122.536-.714,1.02-.269-2.784,2.652-5.41,5.4-6.921,9.055-.565,1.367-.6,2.879-1.434,4.157-.344-2.142.8-3.965,1.387-5.888.654-2.135,2.371-3.606,3.671-5.335C413.546,144.716,414.48,144.535,414.237,143.478ZM380.4,183c.32-.729.852-.543,1.468-.438,2.065.354,3.777,1.77,5.9,1.916-.865,1.089-1.819,1.463-3.074.536A15.6,15.6,0,0,0,380.4,183Zm22.593.585c-.385-.637-.738-1.294-1.1-1.943a.894.894,0,0,1,1.342-.484c-.486,1.023.176,1.786.625,2.6A.558.558,0,0,1,402.992,183.584Zm25.353-63.463c.336-.032.209.246.188.436,1.687,3.311,1.276,6.724.431,10.135a3.9,3.9,0,0,1-1.323,1.908c-2.8,2.468-5.574,4.97-8.357,7.459a4.162,4.162,0,0,1-.66,1.263,4.56,4.56,0,0,1-.454.507,4.475,4.475,0,0,0,.454-.507,4.14,4.14,0,0,0,.66-1.263c-1.949.7-3.9,1.4-5.081,3.29-.381-.676.046-1.118.468-1.557q1.7-1.767,3.4-3.527c1.912-1.963,4.09-3.686,5.481-6.116,2.809-3.311,3.668-7.4,4.561-11.47C428.192,120.483,428.253,120.13,428.345,120.121Zm-1.088-7.621c-.286,2.478.417,4.92-.115,7.467-.874,4.189-1.911,8.24-4.443,11.769-1.96,2.182-3.971,4.314-6.005,6.427a26.731,26.731,0,0,0-4.924,6.308c-.841.224-.662,1.526-1.666,1.578a20.742,20.742,0,0,1,5.811-10.837,35.185,35.185,0,0,0,8.867-15.355c.883-3.027,1.766-6.074.941-9.279a.969.969,0,0,0-.008-1.216q.086-.594.173-1.19A5.4,5.4,0,0,1,427.257,112.5Zm-8.4-4.045a25.576,25.576,0,0,1,4.352-1.74c1.231-.469,1.77.195,2.037,1.279-.081.53-.4,1.136.387,1.382-.64.4-.518.795.037,1.176-.586.736-.3,1.637-.381,2.449a28.287,28.287,0,0,1-.85,5.116,37.835,37.835,0,0,1-9.066,16.144c-3.137,3.222-5.5,6.9-6.1,11.48a82.223,82.223,0,0,1-2.8,9.936c-.7,2.115-1.434,2.353-3.31,1.188.006-.21-.064-.335-.218-.369.3-.112.268-.409.2-.686a27.828,27.828,0,0,1,.03-11.276,69.963,69.963,0,0,1,2.44-7.114,65.031,65.031,0,0,1,4.32-7.72,23.982,23.982,0,0,0,3.961-11.434c.076-1.127.164-2.253.245-3.38C414.369,111.76,416.459,109.924,418.858,108.455Zm-3.829.854c.249-.092.55-.219.565.2.007.183-.238.234-.433.142a12.473,12.473,0,0,0-2.31,6.792c.015,4.591-1.863,8.593-3.985,12.513-1.4,2.589-3.028,5.049-4.228,7.758a33.067,33.067,0,0,0-2.355,7.4,6.017,6.017,0,0,0-.616,2.735c-.316,3.28-.442,6.57,1.076,9.657-.051.048-.128.09-.137.145a2.254,2.254,0,0,0-.008.386c-.351,1.1-1.341.8-2.09,1.039l-1.24-2.94a7.182,7.182,0,0,1-.154-5.83,22.792,22.792,0,0,0,1.5-8.433,16.88,16.88,0,0,1,3.717-10.109,10.773,10.773,0,0,0,2.4-7.806c-.155-1.555-.041-3.141-.038-5.007a25.809,25.809,0,0,1,4.178-6.907A5.208,5.208,0,0,1,415.029,109.309Zm-9.293,2.268.683.246a3.564,3.564,0,0,1,3.55-1.237c-.025-.215.055-.337.229-.292.3.078.326.321.293.581a.42.42,0,0,1-.493-.221c-1.246,2.329-3.179,4.333-3.344,7.206a3.361,3.361,0,0,0-.948,3.084c.534,4.069-.785,7.472-3.234,10.677a13.6,13.6,0,0,0-2.79,7.766,36.569,36.569,0,0,1-2.277,12c-.109.421.212.979-.343,1.259a.95.95,0,0,1-.09-1.156c-.632-3.08-.111-6.123.292-9.17a87.117,87.117,0,0,0,2.112-9.46q.967-5.043,1.934-10.086a35.4,35.4,0,0,1,5.11-10.949l-.684-.246Zm-6.828,6.437a15.736,15.736,0,0,1,6.828-6.436,42.473,42.473,0,0,0-3.463,5.933c-.687,1.737-1.355,3.5-2.04,5.246a3.012,3.012,0,0,0-1.025-2.042C398.046,119.867,398.337,118.926,398.908,118.014Zm-2.592,2.521a3.79,3.79,0,0,1,2.812,3.9,63.516,63.516,0,0,1-.6,8.024,78.951,78.951,0,0,0-1.863,9.591,2.708,2.708,0,0,0-.861,1.537,27.468,27.468,0,0,0-.368,7.016c.028.757.462,1.6-.181,2.293.548.054.292.415.2.715.4.4.631.8,0,1.2a18.29,18.29,0,0,1,1.947,4.154c.047.1-.5-.2-.779-.314a5.4,5.4,0,0,0-1.212-3.356c0-.173,0-.345.005-.518-.138-.379-.517-.755-.065-1.139-.5-.08-.293-.431-.209-.734-.812-1.14-.4-2.579-.9-3.795a4.373,4.373,0,0,0-.053-2.563,48.988,48.988,0,0,0,.281-6.187c.176-5.2-1.742-9.687-4.741-13.8l.007,0c.063-1.653-1.026-3.077-.893-4.775.065-.823.218-1.27,1.066-1.459A11.986,11.986,0,0,1,396.316,120.535Zm-1.137-8.157c.055,1.183.178,2.48-1.331,3.009a7.506,7.506,0,0,0-2.6-1.959,15.765,15.765,0,0,0-4.221-2.071,6.277,6.277,0,0,0-3.07-.874c.037-.29-1.107-.462-.229-.715a15.517,15.517,0,0,1,9.186-.233C394.908,110.168,395.081,110.274,395.179,112.378Zm-2.149-8.5c-1.267-1.845-1.252-3.77-2.088-5.485a9.391,9.391,0,0,1,3.94-.525A33.4,33.4,0,0,1,393.03,103.875Zm.037-7.015c-.66.08-1.237.511-1.985.317-.317-.082-.734.361-1.053-.177-.99-1.671-2.594-2.728-4.022-3.96-.266-.23-.489-.477-.313-.867,2.968-.027,5.467,1.462,8.105,2.5C395.053,96.59,395.046,96.62,393.067,96.86Zm1.076-3.22c-1.766-.678-3.413-1.684-5.346-1.9-.3-.033-.352-.305-.294-.578.071-.035.189-.056.2-.106a1.034,1.034,0,0,0,.027-.285c.492.881,1.328.3,1.931.257C393.831,90.8,393.457,90.4,394.143,93.64Zm-6.026-12.684c1.728,1.035,1.728,1.035.588,3.565,1.253-.2,1.217-1.338,1.744-1.964,1.931,1.255,2.743,3.194,3.01,7.2-1.574.356-3.428-.769-4.758.877-.347-.257-.646-.055-.947.125-.9-.251-1.6.316-2.371.6a5.068,5.068,0,0,0-.517-.055.915.915,0,0,1-.912-.772c-.027-1.661-2.41-2.259-1.858-4.137.653.192,1.02.014.9-.785,1.762-1.111,2.232-2.554,1.613-5.107A10.7,10.7,0,0,1,388.117,80.956Zm-4.156-.649a10.684,10.684,0,0,1-1,5.3c-.6-.129-.732.335-.922.729-1.051.014-1.3-.925-1.755-1.583a8.835,8.835,0,0,0-4.7-3.9C378.342,79.917,381.162,80.41,383.961,80.307Zm-8.071,1.878a6.574,6.574,0,0,1,3.1,3.065c-.936-.084-1.879-.535-2.8.037-.4-.341-.8-.515-1.187.016-.341-.208-.684-.425-.714.213-.4-.665-.781-.509-1.158.073-.64-.316-1.269-.6-1.4.482-.132-.124-.164-.378-.49-.262s-.193.328-.213.507c-.129-.126-.163-.372-.485-.257s-.2.318-.211.494c-.467-.763-1.11.165-1.628-.1a1.234,1.234,0,0,1-.911.685l-.549.664a.572.572,0,0,1,.541-.686c.28-.261.187-1.011.857-.76-.146-.628.477-.772.776-1.1,1.242-1.379,3.219-1.521,4.59-2.692.328.164.7.434.727-.205C375.168,82.886,375.5,82.265,375.89,82.185Zm-1.424-.62q.094.334.191.67c-.322-.175-.65-.368-.669.28-1.118-1.049-2.136-.187-3.078.288a16.288,16.288,0,0,0-6.372,6.283,23.26,23.26,0,0,1-6.245,6.811,5.112,5.112,0,0,0-2.408,1.533c1.223.186,1.845-.492,2.576-.882a13.407,13.407,0,0,0,5.288-4.524A12.513,12.513,0,0,1,367.5,88.5h0c.915-.672,2.221-.754,2.842-1.87q.531.374.707-.244.527.364.7-.257c.57.135,1.187.4,1.386-.489.4.66.788.4,1.173-.027.325.162.685.418.715-.225.444.517.764.5,1.152-.045.708.955,1.766.319,2.633.551,1.064.172,1.489,1.036,2.012,1.819a42.776,42.776,0,0,0,3.038,4.712l-.252.854h0c3.427,1.61,6.023,3.961,7.146,8.131-5.153-2.522-10.235-3.883-15.7-2.715-1.363.169-2.82-.018-3.955,1.022-1.026-.389-1.9.134-2.794.492-.362.145-.4.463-.135.778.835-.2,1.673-.386,2.5-.6.313-.08.633-.2.454-.627,1.455.642,2.813-.079,4.206-.322,5.283-.6,10.117,1.09,14.956,2.85a2.13,2.13,0,0,1,1.347,1.424A18.92,18.92,0,0,0,393.9,108c-.557.792-.973.115-1.4.009a12.455,12.455,0,0,0-4.918-.327c-1.981.3-3.955.647-5.926,1.006a15.888,15.888,0,0,1-10.888-1.472c-2.671-1.465-5.47-2.7-8.212-4.035-.8-.907.544-.872.622-1.393a2.96,2.96,0,0,0,3.219-.762c.429.813.968-.008,1.446.068-.418-1.01-.933-.581-1.45-.109a5.264,5.264,0,0,0-3.246.757,1.877,1.877,0,0,0-1.881.338,11.752,11.752,0,0,1-4.8-1.328l1.018-.49h0a32.543,32.543,0,0,0,10.137-5.435c-1.226-.491-2.007.392-2.822.813a59.435,59.435,0,0,1-7.638,3.8l-4.841.659a.992.992,0,0,0,.029.276,1.03,1.03,0,0,1-.029-.276c-2.011-.6.56-.98.019-1.606a25.423,25.423,0,0,1-6.159,1.09c-.1-.3-1.393-.307-.252-.9a40.212,40.212,0,0,0,6.761-4.446,35.071,35.071,0,0,0,6.407-7.188A13.894,13.894,0,0,1,374.466,81.565Zm-3.018-10.733c.015.605,0,1.212.049,1.814a8.59,8.59,0,0,1-2.048,6.249c-1.17,1.476-2.882,1.261-4.369,1.756-.183.324-.5.337-.823.356.2-.252.253-.837.738-.455-.218-.407.09-.649.353-.943.474-.531,1.1-.993,1.077-1.815,1.153.014.984-1.089,1.384-1.711l-.013,0c1.444-1.15,1.962-2.85,2.617-4.466C370.606,71.137,370.71,70.576,371.448,70.832Zm-30-7.757-2-1.626c.621-1.319,1.91-2.022,2.833-3.062,1.7-1.133,3.222-2.668,5.514-2.5.594.786-.073,1.389-.467,1.8-1.243,1.291-1.667,3-2.515,4.48-.538.941-.2,2.21-1.136,3.013-.973-.487-1.181-1.742-2.225-2.108q-.211.447-.422.893a26.843,26.843,0,0,1,2.262,3.444c1.18,2.746.557,5.41-.039,8.107-.94,1.1-.776,2.678-1.555,3.805a30.207,30.207,0,0,0-4.128,9.144,10.585,10.585,0,0,0-.311,7.57.7.7,0,0,0,.256.7.6.6,0,0,0,.33.669c.109.163.263.48.321.464.4-.116.281-.434.207-.721h0l-.252-.736h0a.963.963,0,0,0-.094-.309,23.185,23.185,0,0,1,.365-7.258,44.614,44.614,0,0,1,2.578-6.149c1.006-2.278,2.349-4.407,3.041-6.825a11.412,11.412,0,0,0,1-6.291,14.756,14.756,0,0,1,2.547-10.966,6.331,6.331,0,0,0,1.254-2.535c2.219-.179,4.438-.377,6.66-.515.285-.018.589.28.884.432,3.645-3.053,7.534-3.627,10.241-.655.941.741,2.058,1.379,1.7,2.874.779.006.9.641,1.079,1.2a31.481,31.481,0,0,1,1.37,10.546l-2.98,6.126c-1.036.083-1.036,1.042-1.395,1.7a14.464,14.464,0,0,0-3.39,3.606l-.019.012a4.112,4.112,0,0,1,.337-2.918,38.776,38.776,0,0,0,1.2-4.221c1.118-5.284,2.28-10.557,3.675-15.776a33.495,33.495,0,0,0-2.245,6.285c-1.663,5.624-2.417,11.5-4.72,16.943-2.038,3.228-4.742,5.932-7.1,8.911a22.229,22.229,0,0,1-9.1,6.58c-.011,0-.019,0-.03-.007s-.006.015-.008.024l.053-.008.013,0c-.234.33-.457.674-.929.679.32-.189.277-.876.869-.693.213-.925,1.057-1.314,1.668-1.875a40.49,40.49,0,0,0,8.829-11.707,41.12,41.12,0,0,0,5.56-11.853,6.194,6.194,0,0,0,.574-1.164c1.085-4.275,2.092-8.572,4.238-12.491.273-.5.651-1.061.328-1.712a18.206,18.206,0,0,0-3.432,6.042c-.946,2.948-1.67,5.967-2.49,8.956-.836,2.625-2.146,5.046-3.22,7.568-.645,1.514-1.981,2.619-2.355,4.263a52.79,52.79,0,0,1-11.452,13.861c-.391.329-.867.587-1.026,1.129-.493.082-1.284,1.223-1.333-.324-.1-3.022,1.048-5.761,2.184-8.453a45.581,45.581,0,0,1,3.283-6.482,24.472,24.472,0,0,0,1.752-4.574c1.152-2.76,1.193-5.729,1.607-8.626.505-3.533,1.279-6.966,3.348-9.969-.248-.009-.526-.1-.688.183a23.66,23.66,0,0,0-2.678,5.854c-1.077,4.253-1.378,8.644-2.385,12.906q-2.977,6.238-5.955,12.477a15.6,15.6,0,0,0-1.457,8.091,11.992,11.992,0,0,1-4.492-2.571c.12-.144.4-.165.276-.5-.112-.316-.323-.205-.5-.226.127-.125.368-.162.254-.482s-.329-.195-.508-.215c.126-.128.372-.163.258-.485s-.319-.2-.495-.211c.646-.4.334-.791-.063-1.179a41.426,41.426,0,0,1,.436-10.8c1.108-3.422,1.761-6.978,3.554-10.2a8.966,8.966,0,0,0,1.239-4.416c.753-1.477.282-3,.184-4.516l-.514-.173-.306,4.448c-.334.414-.213,1.137-.893,1.36-.11-4.071-.11-4.071-1.389-5.351-.058.05-.163.1-.165.15a4.539,4.539,0,0,0,.01,1.023,21.647,21.647,0,0,1-.571,9.245c-.628,2.683-1.639,5.268-2.034,8.009a21.923,21.923,0,0,0-.407,10.082c.079.465-.116,1.246.76,1.183-.7.394-.487.774.082,1.15-.246.351-.162.585.246.7-.24.347-.156.579.243.7-.2.328,0,.519.243.694-.132.4.529.876-.113,1.251-1.1-.259-1.374-1.568-2.395-1.919.274-.367.036-.558-.29-.719a24.488,24.488,0,0,0-1.742-4.85,10.582,10.582,0,0,0-.225-4.295c.288-3.895.815-7.775.8-11.689a22.143,22.143,0,0,0-4.507-13.9,4.279,4.279,0,0,1-.354-.893c3,.552,5.852,1.055,8.69,1.614.617.122,1.446.155,1.335,1.182-.028.254.2.607.357.358,1.306-2.112,1.8.048,2.626.46l.514.173,1.007.471C341.171,63.67,341.311,63.372,341.452,63.075Zm-.879-5.678c0,.139-.184.281-.283.422a8.637,8.637,0,0,0-2.463,2.857l-.8-.349c-.136-1.641.077-3.327-.626-4.894a.837.837,0,0,0-.019-1.2c.031-.175.061-.35.092-.525C338.473,53.695,340.551,55.558,340.573,57.4Zm-4.488-3.851c-.084.3-.378.691.213.724-.495.42-.48.743.054,1.146-.847.61-.3,1.477-.357,2.222-.07.885.513,1.833-.275,2.647a7.061,7.061,0,0,1-2.764-1.309c.155-1.087-.579-1.862-.979-2.755.072-.3.082-.573-.25-.724a1.955,1.955,0,0,0-.28-1.855c.033-.179.065-.357.1-.536A3.477,3.477,0,0,1,336.085,53.546ZM320.5,56.124a78.829,78.829,0,0,0,7.847-2.42,7.27,7.27,0,0,1,2.707-.754h0c-.014.3-.04.612.327.714-.413.692-.5,1.334.284,1.843-.4.422-.48.73.267.735-.475,1.374-.3,1.892.931,2.718-.5.118-.771.664-1.495.494-3.636-.852-7.3-1.581-10.956-2.357a.691.691,0,0,1-.594-.729A.554.554,0,0,0,320.5,56.124Zm3.8,3.092c.461.075.829.834,1.2,1.305a22.5,22.5,0,0,1,4.712,14.519c0,1.379-.074,2.757-.114,4.136a1.2,1.2,0,0,1,.041.57,1.188,1.188,0,0,0-.041-.571c-.283.491-.611.279-.94.061a9.052,9.052,0,0,0-.879-2.415c-1.35-3.086-3.426-5.792-4.644-8.944a25.916,25.916,0,0,0-4.576-7.142c-.374-.441-.773-1.1-1.563-.966.056-.834-.419-1.122-1.155-1.139.417-.409-.074-.5-.311-.68C318.927,57.428,321.549,58.768,324.3,59.216Zm-31.784,24.84c.119-3.213.179-6.427.272-9.641a.644.644,0,0,1,.647-.666c1.429,1.528,3.388,1.708,5.264,1.906a8.432,8.432,0,0,1,7.623,5.713c.554,1.459,1.169,2.894,1.728,4.351,2.246,5.853,6.449,9.178,12.7,9.865a2.23,2.23,0,0,0-.866-.5c-1.572-.72-3.368-.829-4.841-1.806a13.832,13.832,0,0,1-5.927-7.686c-.425-1.414-1.143-2.738-1.638-4.134-1.465-4.133-4.46-6.321-8.71-6.889a14.124,14.124,0,0,1-4.95-1.594,2.019,2.019,0,0,1-.466-2.145,16.38,16.38,0,0,1,5.664-8.409c.309-.263.6.025.9.109-.076.562.288.785.751.932a4.051,4.051,0,0,0,2.135,2.75c-.105.572.507.673.711,1.041l1.885.721c-.423-1.207-1.5-1.487-2.569-1.789-.279-1.251-1.268-1.955-2.134-2.755.038-.524-.3-.762-.712-.934.079-.458.005-.934.534-1.272,2.125-1.36,4.257-2.676,6.862-2.883a12.559,12.559,0,0,1,7.887-.6h0c.121.537.546.745.991.932.057.748.684.909,1.225,1.157,1.495,2.5,3.592,4.612,4.666,7.375l-.064-.038a.412.412,0,0,0-.133.093.513.513,0,0,0,.163-.043.4.4,0,0,0,.32.2c-.12.288-.3.237-.472.066a.143.143,0,0,1-.01-.222c-.334.029-.542-.327-.844-.4a24.294,24.294,0,0,0-2.852-2.247c-2.534-1.823-5.373-3.122-8-4.785-.414-.262-.876-.639-1.363-.082a111.694,111.694,0,0,1,11.83,7.908A33.766,33.766,0,0,1,328.292,79.7l0,0c.446,2.291,1.435,4.458,1.557,6.823a7.05,7.05,0,0,0,.165,2.775c.086.46-.2,1.257.751,1.2a4.91,4.91,0,0,0,1.736,4.845c-.425.422-.045.567.254.741.065,1.164,1.488,1.443,1.808,2.492-.8.531-1.472,1.03-2.2,1.438-.373.21-.59-.069-.619-.465.8-1.24.413-2.135-.844-2.708-.86-.392-1.759-.7-2.641-1.042a31.4,31.4,0,0,1-6.679-8.537c-.1-.208-.218-.434-.432-.447.155-.155.08-.4,0-.625-.88-2.467-1.642-4.987-2.688-7.382a15.754,15.754,0,0,0-9.818-9.163,10.225,10.225,0,0,1-3.171-1.58c-.139,1.179-.836.534-1.389.362-2.153-.018-3.936-1.2-5.928-1.972.569,1.386.576,1.374,1.318,1.8a17.128,17.128,0,0,0,5.715,1.682c6.582,1.157,10.975,4.837,13.052,11.231.483,1.489,1.027,2.959,1.581,4.424.2.531.26,1.213,1,1.349-.317.435-.019.786.178,1.147a24.155,24.155,0,0,0,6.7,7.864c-.268.8-.969.485-1.509.584-1.312-.255-2.549-1.089-3.968-.513.711.172,1.42.359,2.135.512.68.146.374.536.246.89l.6.607-.006-.055c.23-.088.459-.176.687-.267,0,0,.092.041.092.041,1.217-.193,2.383-.9,3.964-.315a16.21,16.21,0,0,0-3.726,4.2,9.1,9.1,0,0,0-1.146,2.257c-.321,1.647-1.55,3.187-.73,5l-.743,1.322,1.2.522c.14-.672.438-1.381-.386-1.822.356-.122.4-.424.454-.764a19.7,19.7,0,0,1,2.145-6.121c1.024-1.268,1.993-2.6,3.692-3.192a13.657,13.657,0,0,1-.785,3.056,12.412,12.412,0,0,0-.6,8.382,15.42,15.42,0,0,1,.4,1.772,1.953,1.953,0,0,1-1.074,2.153,2.248,2.248,0,0,1-2.459,0,7.417,7.417,0,0,1-.921-.9l-.322.118c-.382,1.464.646,2.006,1.686,2.444,1.3.55,2.313-.183,3.3-.929.707-.534.641-1.609,1.544-2.094.839.866,1.745,1.675,3.1,1.459a4.7,4.7,0,0,1-1.538,1.713c-.749.674-1.415,1.392-.876,2.442a3.046,3.046,0,0,0,2.515,1.924,3.928,3.928,0,0,0,2.227-.5c.3-.041.615-.191.835.162-3.016,4.585-8,4.705-12.148,1.761a18.73,18.73,0,0,1-4.251-3.808c-1.152-1.513-1.2-2.689.009-4.22.793-1,1.167-2.644,2.982-2.433l.017-.022-.017.022c-.027.256.072.6.311.475.431-.227.3-.683.155-1.076v0c-.4-.175-.8-.349-1.194-.523-2.688.35-3.564,2.446-4.3,4.777a3.969,3.969,0,0,1-2.633-3.659,10.994,10.994,0,0,1,3.823-10.034,31.462,31.462,0,0,1,4.717-3.263l-.6-.608c-4.663.559-9.318,1.14-14.022.351a9.265,9.265,0,0,1-7.451-5.423,8.744,8.744,0,0,0-4.956-4.729c-1.619-.636-3.153-1.487-4.74-2.209A1.291,1.291,0,0,1,292.516,84.056Zm23.035,40.9c-3.844.943-7.674,1.361-11.564-.17.365-.632,1.347-.281,1.308-1.193-.648-.474-1.283-.105-1.918.065-2.415.185-4.445-1.123-6.659-1.717a18.159,18.159,0,0,0-7.5-1.3l.012,0a1.508,1.508,0,0,0-1.385-.173.862.862,0,0,1-1.177-.356c-.159.351-.451.2-.728.1a1.372,1.372,0,0,0-.006-.26,3.61,3.61,0,0,1,.7.03c.077-.432.511-.565.755-.858a11.718,11.718,0,0,0,2.644-1.786,2.547,2.547,0,0,0,1.768-1.491,2.125,2.125,0,0,0-2.055.854,5.834,5.834,0,0,0-2.536,1.7,10.085,10.085,0,0,0-.933.391c-.3.161-.707.317-.713.677a1.084,1.084,0,0,0-.533.023c-.874.221-1.742.466-2.613.7.04-.866,1.4-.563,1.359-1.5.328.244.6.056.87-.134a41.9,41.9,0,0,0,5.166-4.56c.224-.222.108-.367.013-.524.742.676,1-.054,1.326-.566.359.252.6.165.712-.264,4.022-.069,8.045-.13,12.067-.22.388-.009.873,0,1.046-.513.863.223,1.681.32,2.081-.732.425.466.56.086.71-.249.349.239.583.155.7-.26.624.147,1.056.054.936-.728a1.144,1.144,0,0,0,1.6-.978c.945.373,1.32-.218,1.617-.944.376.319.536.007.711-.264.521.036.721-.348.923-.728.485,0,.643-.416.9-.712l.606.659q-.495,1.3-.989,2.608c.587.508.449,1.228.539,1.889.309,2.273,1.143,4.205,3.446,5.154a1.623,1.623,0,0,1,1.108,2.141,35.225,35.225,0,0,1-6.27-3.072c-.662-.393-1.22-1.2-2.025-.554-.711.568-.462,1.464-.226,2.2a8.761,8.761,0,0,0,3.224,4.944c.771.523,1.483,1.131,2.324,1.78l-1.341.892Zm-.2-20.356c-.133-.125-.166-.379-.493-.264-.261.092-.226.247-.211.4-.141-.508-.625-.316-.911-.224a57.859,57.859,0,0,0-7.066,2.335c-4.173.765-7.451-.567-9.731-6.322,3.025,1.566,6.138,1.2,9.267.411.265-.066.276-.238.224-.424.379.565.745.369,1.107-.141.35.247.584.165.7-.24.228.293.437.157.644-.055,3.838-1.319,7.845-.607,12.3-1.357-1.621,2.2-3.365,3.507-4.429,5.345C316.255,104.151,315.512,103.664,315.356,104.6Zm-2.525,12.1c1.159.55,2.149,1.034,3.152,1.488.409.185.8.344.782.888a6.4,6.4,0,0,0,1.169,3.368C314.657,120.92,313.526,119.62,312.831,116.7Zm5.738,3.863a1.19,1.19,0,0,1-.263-1,4.149,4.149,0,0,1,3.748,1.308c2.368,2.324,5.276,3.564,8.267,4.722.14-.049.376-.173.4-.136.2.251.024.433-.178.589a2.868,2.868,0,0,1-3.537.772A22.261,22.261,0,0,1,318.569,120.562ZM293,90.378c-.138-1.269-.323-2.533-.553-4.285,3.669,2.28,8.445,2.171,9.714,7.288-1.555-.237-2.6-1.316-3.971-1.437a6.277,6.277,0,0,0-3.7-.731h0l-.6-.062C293.523,90.971,293.059,90.952,293,90.378Zm.984,3.815c-.235-.87-1.141-1.836-.215-2.842.267.136.584.535.7-.086a5.4,5.4,0,0,0,3.538,1.037,50.855,50.855,0,0,1,6.949,4.429,11.292,11.292,0,0,0,3.226,1.626c.455.152,1.069.193.973.939-.415.132-1.086-.032-.945.748-.122-.129-.164-.36-.479-.25s-.2.321-.207.5c-.4-.7-.794-.494-1.178.065-3.217.134-6.442.409-9.591-.578C294.971,98.348,294.525,96.21,293.981,94.193Zm-9.918,17.173c.893-1.552,1.944-3.014,2.924-4.516l6.926-7.106h0c.314.1.723-.045.924.336a40.376,40.376,0,0,0,3.34,5.267c.3.409-.313.474-.485.712a4.93,4.93,0,0,0-3.7,1.181c0-.016,0-.028-.007-.044a7.593,7.593,0,0,0-4.1,1.767c-3.064,2.086-5.039,5.218-7.6,7.789a1.024,1.024,0,0,0-.915.732c-.563-.127-.754.728-1.342.535C280.906,115.518,282.769,113.614,284.063,111.366Zm-4.5,7.526c-.162-.4-.434-.858.39-.816ZM310.4,130.671a18.4,18.4,0,0,1-7.475-.752c-3.688-1.274-7.358-2.608-10.982-4.049-3-1.192-6.169-1.774-9.21-2.807a3.933,3.933,0,0,1-1.889-1.241c-.247-.309.432-.339.655-.54l-1.388-.845c-1.394-.043-.957-.726-.537-1.4.413.341.727-.265,1.115-.161l.878-.954h0q.465-.337.932-.673a14.457,14.457,0,0,0,3.218-3.009,21.137,21.137,0,0,1,7.434-5.982c.395-.182.972-.317.853-.956a9.97,9.97,0,0,0,4.763-.669c.334.038.754-.041.987.133a7.356,7.356,0,0,0,7.236.889,47.911,47.911,0,0,0,7.667-2.751c.365.267.605.183.725-.239,1.469.739.006,1.092-.235,1.606-.48.007-.692.362-.909.711-.607-.154-.753.294-.924.707-.348-.229-.533.023-.716.278a2.956,2.956,0,0,0-1.609.961,2.652,2.652,0,0,0-1.615.966c-.463.043-1.034-.05-.939.689-.445-.519-.612-.254-.69.258-.415-.439-.548-.056-.7.277-.852-.213-1.68-.358-2.066.713-.052-.413-.366-.379-.693-.376-1.971.016-3.943.041-5.913.019a25.6,25.6,0,0,0-5.64.368c-.4.085-1.062-.016-.914.736-.117-.129-.159-.356-.47-.245s-.191.332-.213.511c-.78-.743-1.058-.039-1.39.508a.607.607,0,0,0-.665.155,38.434,38.434,0,0,1-5.447,4.727c-.024.016.013.128.055.246-.184-.257-.441-.066-.69.049-.707.328-1.417.65-2.125.974l-.764.935,1.388.845v-.01h0c.257-.043.514-.086.771-.132,0,0,.118.053.118.053l3.3-.478c1.169.114,2.343.453,3.5-.057,2.287,1.194,4.869,1.209,7.3,1.824a57.974,57.974,0,0,0,6.2,2.763,15.02,15.02,0,0,0,13.141.508,2.156,2.156,0,0,0,1.413-.588c1.2-1.164,2.431-.9,3.75-.248-.347.687-.958.572-1.429.714a8.859,8.859,0,0,0-4.591,2.835A6.149,6.149,0,0,1,310.4,130.671Zm10.878-4.19c.692-.25,1.256-.555,1.895-.035,1.528,1.245,3.427,1.81,5.094,2.8a2.255,2.255,0,0,1,2.388-.572c.38,1.009,1.33,1.212,2.188,1.545a.558.558,0,0,0,.291.309,28.9,28.9,0,0,0-.6,10.1c-.211.327-.351.885-.874.327a15.963,15.963,0,0,1-2.561-4.178c-.273-.57-.192-1.338-.863-1.7.047-.033.1-.065.112-.108a2.18,2.18,0,0,0,.036-.363q-.066-2.617-.133-5.235c-1.2,1.731-.864,3.637-.576,5.538.085.2.213.284.387.243-.817.892-.109,1.808.211,2.582a18,18,0,0,0,3.219,5.275c.668.738,1.531,1.381,1.585,2.514-1.261,0-1.609-1.376-2.605-1.776a80.611,80.611,0,0,0-13.057-10.469c-1.105-.706-2.476-1.117-3.11-2.439A18.628,18.628,0,0,1,321.274,126.481Zm25.694,45.746-.017.175c-.877-1.4-1.823-2.754-2.618-4.2a56.38,56.38,0,0,0-7.649-10.176l-.709-.809c-4.721-4.559-9.331-9.236-14.436-13.382a8.837,8.837,0,0,0-1.911-1.32c-1.713-1.846-3.915-3.052-5.926-4.505a8.844,8.844,0,0,1-1.839-1.4,1.487,1.487,0,0,1,1.552-.414,6.087,6.087,0,0,0,3.087.273c2.283-1.125,3.983-.174,5.68,1.386,2.548,2.342,5.24,4.529,7.87,6.783,4.77,4.654,9.28,9.551,13.6,14.621a46.745,46.745,0,0,1,4.318,6.6c.31.52.221.8-.445.706v.023c0-.013,0-.023,0-.023-.116-.155-.232-.309-.347-.464-.142.071-.285.137-.431.2.171.3.348.594.774.392-.425,1.591.9.766,1.432,1.037-.557.66-.7,1.624-1.621,2.035-.51.226-.057.712-.054,1.079a1.663,1.663,0,0,0-.145,1.331Zm-4.012-15.66a31.353,31.353,0,0,1-3.577-4.345c3.945,1.321,7.916,1.132,11.09,3.7.863.7,2.008-.1,3.346-.086-.442,2.366-1.8,4.528-1.379,6.963h0l.005.011h0c-.221,1.3.694,2.454.495,3.753-.663.529-1.348,1.035-1.982,1.6-.445.394-.708.214-.972-.174C348.653,163.553,345.922,159.991,342.956,156.567Zm14.113,35.166a19.528,19.528,0,0,1-9.3,1.582c-.55.087-.991.018-.995-.664l.873.25c.192-.352,1.046-.14.818-.69-.2-.485-.717-.048-1.077.088a6.138,6.138,0,0,0-.621.3c-.42-.234-.294-.537-.079-.823,1.609-2.145,3.19-4.313,4.847-6.42,2.079-2.645,5.045-3.886,8.105-4.958.875-.307,1.891-.332,2.547-1.177-4.264-1.385-11.808,4.4-17.2,13.3a5.811,5.811,0,0,1-1.162-5.753,1.011,1.011,0,0,0,.742-.645c1.443-3.215,3.813-5.7,6.262-8.158,2.163-2.167,4.891-3.518,7.292-5.336.328-.041.6-.173.459-.547-.038-.1-.382-.077-.585-.111a10.633,10.633,0,0,0-3.517,1.638,32.532,32.532,0,0,0-8.873,9.005c-.529.788-.92,1.657-1.914,1.97.774-3.61,1.647-7.182,3.753-10.311.569-.845,1.076-1.732,1.611-2.6l3.975-4.563h0c.753.02.931.679,1.288,1.148a8.834,8.834,0,0,0,11.091,3.048c1.363-.56,2.673-1.256,3.979-1.943a53.482,53.482,0,0,1,12.98-4.64c.394-.091,1.1-.537,1.192.124.206,1.42,1.209-.519,1.471.614a11.341,11.341,0,0,0-1.378,7.583,5.262,5.262,0,0,1-.247,1.532,2.885,2.885,0,0,0-1.143,1.856l.023-.005A50.591,50.591,0,0,1,372.7,183.7c-.03.019.047.214.1.363-.691-.507-.983.131-1.363.519-.537-.053-.8.25-.933.714-.654-.369-1.006.148-1.407.521-.975.357-2.227.306-2.519,1.669-.125-.13-.151-.387-.483-.267s-.2.337-.23.522c-.723-.575-1.038.029-1.393.516a2.609,2.609,0,0,0-2.314,1.224c-1.19-.091-2.042.707-3.021,1.165-.3.14-.468.36-.314.657C358.073,190.45,357.632,191.471,357.069,191.733Zm-.507,3.4c-.03-.357-.461-.822.106-1.075.382-.17.244.829.82.453-.47.276-.4.8-.569,1.22C356.794,195.529,356.579,195.338,356.562,195.13Zm22.77-6.946a59.605,59.605,0,0,1-4.9,5.015,6.565,6.565,0,0,1-5.12,1.425c-1.709-.223-3.7.277-4.862-1.649-.258-.428-.731-.364-1.169-.274a14.334,14.334,0,0,1-4.814-.316l.457-.945c2.048-.385,2.565-.7,3.239-1.941,1.149.3,1.778-.024,2.316-1.207.735.612,1.051.012,1.4-.486.348.217.541-.01.724-.269.96-.384,2.1-.5,2.518-1.685.676.451,1.007-.111,1.4-.492a.83.83,0,0,0,.935-.716.966.966,0,0,0,1.4-.515c1.412-.038,2.34-1.082,3.462-1.71.487-.273.863-.513,1.246.081-.679,1.731.658,2.592,1.661,3.433S380.236,187.281,379.332,188.184Zm31.987,10.04c2.136,3.464,4.47,6.806,7.947,9.124.139.776.082,1.3-.924.671a3.282,3.282,0,0,0-.47-.2c-2.548-1.529-5.317-2.6-7.974-3.912a18.29,18.29,0,0,1-4.255-5.087,1.275,1.275,0,0,0-.368.086l-.007-.008-.056.026h0l.073-.01a9.5,9.5,0,0,0,4.343,5.512c2.513,1.592,5.424,2.438,7.855,4.186h0l1.891.984,1.685,1.213c.2.383.582.47.935.611a13.211,13.211,0,0,1,5.161,7.855,1.279,1.279,0,0,1-.086.994l.185.371a.428.428,0,0,1-.552-.26c-.365-.234-.727-.471-1.089-.707-1.417-1.421-2.66-3.041-4.524-3.95a14.69,14.69,0,0,0-7.105-3.35,18.359,18.359,0,0,0-4.948-.6c-5.672-1.107-9.752-4.143-11.836-9.664-.246-.651-.371-1.328-.609-1.961-.549-1.463.548-1.494,1.4-1.775.789-.211,1.562-.784,2.388-.191a1.3,1.3,0,0,1,.512-1.658c1.308-.93,2.623-1.268,4.026-.264.394-1.264,1.392-.3,2.077-.5C409.281,195.063,410.266,196.517,411.319,198.224Zm-1.992-3.688a5.155,5.155,0,0,1-1.4.233,11.1,11.1,0,0,0-10.224,2.842c-4.449-.115-7.71-2.551-10.4-5.716-1.98-2.325-3.869-4.661-6.522-6.263a8.363,8.363,0,0,1-1.556-1.376c-.418-.427-.981-.985-.384-1.541.43-.4.926.271,1.42.366h0c.009.548.47.651.835.854,3.323,1.855,6.814,3.381,10.113,5.3,1.669.97,3.355,2.185,5.457,2.208a11.01,11.01,0,0,0,2.865,1.206,7.448,7.448,0,0,0,3.125.867c.421.085,1.148.485,1.336-.413C405.454,194.154,407.353,193.751,409.327,194.536ZM401.7,192.3l.373-.112c.064.154.006.24-.188.228C401.824,192.414,401.765,192.343,401.7,192.3Zm2.277.764c-.5-.558-1.4-.292-1.878-.884,3.117-1.021,4.187-.809,5.469,1.106C406.358,193.259,405.235,191.79,403.98,193.066Zm1.978-5.438a.49.49,0,0,0,.244.721.514.514,0,0,0,.237.7c-.176.327.023.525.26.71-.005.639.513,1.753-.976,1.076a28.1,28.1,0,0,0-5.594-2.137c-.345-.736-1.747-.611-1.546-1.67,1.029-.085,2.146.1,2.881-.893.171.742.836.453,1.189.387A3.179,3.179,0,0,1,405.958,187.628Zm8.2-3.526a11.369,11.369,0,0,1-8.927.9c.929-.385.067-.659-.061-.978,0,0-.142-.143-.142-.143-.851-.748-.711-2.126-1.739-2.761,1.212-2.615,2.572-5.174,3.577-7.865a19.9,19.9,0,0,1,2.588-5.3c1.641-2.16,2.53-2.4,5-1.127l2.175,3.239a16.238,16.238,0,0,1-.2,10.329C415.6,181.6,415.575,183.366,414.154,184.1Zm4.251-8.432c-.094-1.152.568-1.214,1.452-1.24a17.263,17.263,0,0,1,10.052,2.809c1.807,1.158,3.672,2.223,5.512,3.331a19.73,19.73,0,0,0,14.288,2.888.053.053,0,0,1-.005.011c.285.02.6.109.746-.228.63.4,1.6-.214,2.067.667h0c-2.621,1.87-5.272,3.7-7.846,5.635a8.663,8.663,0,0,1-2.513,1.237c-2.538-.388-5.155-.227-7.589-1.329a24.519,24.519,0,0,1-7.829-5.8c-1.346-1.442-2.446-3.126-4.1-4.269a6.69,6.69,0,0,0-3.226-1.582C417.807,177.557,418.475,176.52,418.4,175.67Zm.027,15.283a7.085,7.085,0,0,1-2.505-2.946,2.849,2.849,0,0,0-1.259-1.518.691.691,0,0,0-.2-.759,6.451,6.451,0,0,0,2.737-4.965l.895-1.888a4.453,4.453,0,0,1,3.332,3.325c.375,1.43.733,2.865,1.156,4.281.553,1.853,1.253,3.632,2.982,4.755a9.093,9.093,0,0,0,.621.781c1.9,1.922,4.45,2.434,6.889,3.188C427.563,195.981,422.93,193.634,418.432,190.953Z" fill="#1C3326"/>
    <path id="Path_380" data-name="Path 380" d="M230.918,105.22Z" fill="#1C3326"/>
    <path id="Path_381" data-name="Path 381" d="M410.031,110.594c-.021,0-.041,0-.061-.008a.208.208,0,0,0,0,.025Z" fill="#1C3326"/>
    <path id="Path_382" data-name="Path 382" d="M368.283,58.256c0-.014.005-.028.009-.042-.018,0-.032,0-.051,0Z" fill="#1C3326"/>
    <path id="Path_383" data-name="Path 383" d="M365.056,80.657l.024-.007c0-.008.011-.011.015-.019Z" fill="#1C3326"/>
    <path id="Path_384" data-name="Path 384" d="M235.757,97.676l.008-.021a.324.324,0,0,0-.062-.185.833.833,0,0,0,.011.184A.292.292,0,0,0,235.757,97.676Z" fill="#1C3326"/>
    <path id="Path_385" data-name="Path 385" d="M234.729,105.273h0s0,0,0,0l-.024-.052-.023-.01c-.005.017-.01.027-.015.043l.063.022Z" fill="#1C3326"/>
    <path id="Path_386" data-name="Path 386" d="M265.692,116.424l-.021-.007-.056.027Z" fill="#1C3326"/>
    <path id="Path_387" data-name="Path 387" d="M265.615,116.444l.062.015c.005-.012.011-.021.016-.035Z" fill="#1C3326"/>
    <path id="Path_388" data-name="Path 388" d="M376.933,244.065c.118-.311.384-.676-.2-.732.633-.633.14-1.378.048-2.018a182.2,182.2,0,0,0-6.14-26.906c-.35-1.333-.326-2.835-1.664-3.721.115-.145.384-.169.267-.5s-.326-.189-.5-.214c.121-.132.367-.166.254-.484s-.326-.189-.5-.214c.121-.131.367-.166.254-.484s-.326-.189-.5-.214c.121-.13.366-.164.254-.481-.1-.294-.3-.2-.462-.21.218-.07.39-.176.292-.472a38.3,38.3,0,0,0-2.29-6.548c-.328,1.536.62,5.008,1.911,7.014-.3.373-.219.611.228.72-.271.359-.189.592.249.7-.272.359-.19.592.249.7-.277.364-.19.6.265.7-.457,1.514.5,2.7.941,4.01,2.228,8.716,4.171,17.5,5.985,26.306a5.518,5.518,0,0,0,.759,2.339.45.45,0,0,0,.232.716c-.19.336-.261,1.026-.706.718-1.534-1.061-3.587-.687-5.019-1.932l-1.345-2.205c0,.007,0,.012-.006.019-.037-.081-.077-.161-.122-.239a.563.563,0,0,0,.118.251c-.512,1.244.208,2.025,1.059,2.755,1.292,1.969,3.892,1.656,5.494,3.138.383.354,1.021.036,1.049-.654A2.364,2.364,0,0,0,376.933,244.065Z" fill="#1C3326"/>
    <path id="Path_389" data-name="Path 389" d="M369.221,238.558c.525-.236.174-.68.073-1.065-.119-.771-.189-1.555-.365-2.313-1.745-7.525-3.225-15.117-5.564-22.495a65.313,65.313,0,0,0-2.42-7.066c-.139-.379-.3-.8-.8-.844.28-.362.193-.593-.248-.7.275-.361.191-.593-.249-.7.275-.361.189-.594-.254-.7.228-.675.1-1.074-.707-.938.72-1.026-.163-1.636-.661-2.346-.6,1,.053,1.676.605,2.377.047.459-.07,1.045.691.945-.124.121-.351.163-.242.47s.327.189.5.214c-.12.132-.367.166-.254.484s.326.188.5.214c-.12.132-.367.166-.254.483.1.292.292.206.459.21-.4.126-.3.447-.2.734q1.374,3.723,2.768,7.44c2.142,8.038,3.633,16.235,5.93,24.235a1.745,1.745,0,0,0,.473,1.4c-.175.755.32,1.262.65,1.831-.052-.3.145-.617.093-.912C369.683,239.149,369.815,238.552,369.221,238.558Z" fill="#1C3326"/>
    <path id="Path_390" data-name="Path 390" d="M368.241,58.21c-.025.092-.047.184-.071.276.04-.075.075-.152.117-.227C368.283,58.256,368.241,58.21,368.241,58.21Z" fill="#1C3326"/>
    <path id="Path_391" data-name="Path 391" d="M409.97,110.612a.454.454,0,0,0,.028.043l.033-.06Z" fill="#1C3326"/>
    <path id="Path_392" data-name="Path 392" d="M328.253,129.374c.023-.033.042-.065.065-.1h0l-.054-.03a.178.178,0,0,0-.013.014C328.251,129.3,328.252,129.336,328.253,129.374Z" fill="#1C3326"/>
    <path id="Path_393" data-name="Path 393" d="M365.1,80.631c-.038-.036-.067-.053-.1-.08a.84.84,0,0,0,.061.106Z" fill="#1C3326"/>
    <path id="Path_394" data-name="Path 394" d="M352.013,119.15a.566.566,0,0,0,.2-.1,1.181,1.181,0,0,0-.232.013Z" fill="#1C3326"/>
    <path id="Path_395" data-name="Path 395" d="M232.688,107.751a.545.545,0,0,0-.055-.013l-.027.044c.023.022.045.039.068.059a.487.487,0,0,0,.014-.09Z" fill="#1C3326"/>
    <path id="Path_396" data-name="Path 396" d="M400.41,198.277l.018.045c.017-.023.029-.043.049-.067l-.026.009.029-.01c-.034-.028-.068-.051-.1-.075.011.032.019.064.032.1Z" fill="#1C3326"/>
    <path id="Path_397" data-name="Path 397" d="M366.851,211.453a2.018,2.018,0,0,0,.391.962A1.147,1.147,0,0,0,366.851,211.453Z" fill="#1C3326"/>
    <path id="Path_398" data-name="Path 398" d="M368.086,215.391a4.207,4.207,0,0,0-.843-2.976A4.044,4.044,0,0,0,368.086,215.391Z" fill="#1C3326"/>
    <path id="Path_399" data-name="Path 399" d="M372.949,233.3c-.025,0-.044-.007-.068-.009a.184.184,0,0,1,.011.019c0,.007,0,.013,0,.019.018-.009.03-.02.049-.029A.011.011,0,0,0,372.949,233.3Z" fill="#1C3326"/>
    <path id="Path_400" data-name="Path 400" d="M372.186,232.094c-.129.654-.066,1.139.7,1.2C372.607,232.938,372.857,232.286,372.186,232.094Z" fill="#1C3326"/>
    <path id="Path_401" data-name="Path 401" d="M365.815,208.689c.18-.316.33-.459.3-.554-.125-.46-.294-.907-.448-1.359C364.993,207.424,365.485,207.959,365.815,208.689Z" fill="#1C3326"/>
    <path id="Path_402" data-name="Path 402" d="M371.822,229.965c.315-.077.2-.407.13-.64-.092-.307-.211-.607-.6-.578.012.247.015.494.047.737S371.585,230.023,371.822,229.965Z" fill="#1C3326"/>
    <path id="Path_403" data-name="Path 403" d="M371.35,228.747a.12.12,0,0,0,0-.019l-.064.023C371.309,228.747,371.328,228.749,371.35,228.747Z" fill="#1C3326"/>
    <path id="Path_404" data-name="Path 404" d="M369.009,217.331a.194.194,0,0,0-.363-.019c-.219.34-.033.632.1.933l-.024.012-.043.022c.034,0,.056,0,.086,0a.2.2,0,0,1-.011-.026C369.228,218.079,369.17,217.694,369.009,217.331Z" fill="#1C3326"/>
    <path id="Path_405" data-name="Path 405" d="M371.033,228.046c.53-.315.431-.771.232-1.248C370.77,227.12,370.848,227.571,371.033,228.046Z" fill="#1C3326"/>
    <path id="Path_406" data-name="Path 406" d="M372.558,234.6l-.022.01.119.048c-.016-.027-.031-.055-.047-.081l0,0c0-.008-.005-.017-.008-.025-.021.019-.037.039-.06.057Z" fill="#1C3326"/>
    <path id="Path_407" data-name="Path 407" d="M372.6,234.55a1.333,1.333,0,0,0,.3-1.217C372.337,233.62,372.425,234.074,372.6,234.55Z" fill="#1C3326"/>
    <path id="Path_408" data-name="Path 408" d="M372.16,230.654l-.4.123a4.247,4.247,0,0,0,.243.59c.017.029.222-.05.341-.079C372.283,231.084,372.224,230.88,372.16,230.654Z" fill="#1C3326"/>
    <path id="Path_409" data-name="Path 409" d="M364.169,202.995l.17.129a.654.654,0,0,0-.052-.084C364.265,203.012,364.209,203.01,364.169,202.995Z" fill="#1C3326"/>
    <path id="Path_410" data-name="Path 410" d="M364.339,203.125c.021.04.041.082.061.123l.07-.023Z" fill="#1C3326"/>
    <path id="Path_411" data-name="Path 411" d="M364.467,203.225l-.067.022c.006.015.011.031.017.046A.687.687,0,0,1,364.467,203.225Z" fill="#1C3326"/>
    <path id="Path_412" data-name="Path 412" d="M364.64,203.9q-.108-.3-.224-.607C364.179,203.613,364.279,203.806,364.64,203.9Z" fill="#1C3326"/>
    <path id="Path_413" data-name="Path 413" d="M364.864,204.6c-.063-.2-.127-.409-.193-.613C364.432,204.294,364.5,204.5,364.864,204.6Z" fill="#1C3326"/>
    <path id="Path_414" data-name="Path 414" d="M364.671,203.989c.017-.022.031-.043.052-.066l-.026.008.029-.01c-.031-.006-.057-.014-.086-.022.005.015.011.03.017.045S364.666,203.974,364.671,203.989Z" fill="#1C3326"/>
    <path id="Path_415" data-name="Path 415" d="M364.952,204.626c-.033-.007-.059-.016-.089-.025l.015.049Z" fill="#1C3326"/>
    <path id="Path_416" data-name="Path 416" d="M364.95,204.627l-.07.023c.007.016.013.033.019.049C364.915,204.676,364.929,204.653,364.95,204.627Z" fill="#1C3326"/>
    <path id="Path_417" data-name="Path 417" d="M365.132,205.3c-.076-.2-.155-.4-.234-.6C364.677,205.017,364.779,205.206,365.132,205.3Z" fill="#1C3326"/>
    <path id="Path_418" data-name="Path 418" d="M365.382,206c-.071-.2-.142-.407-.216-.609C364.927,205.705,365.024,205.9,365.382,206Z" fill="#1C3326"/>
    <path id="Path_419" data-name="Path 419" d="M365.166,205.387c.017-.022.03-.044.05-.067l-.028.01.031-.011c-.032-.006-.058-.014-.087-.022l.018.045C365.155,205.357,365.16,205.372,365.166,205.387Z" fill="#1C3326"/>
    <path id="Path_420" data-name="Path 420" d="M365.416,206.091c.017-.024.032-.046.052-.071l-.033.011.036-.012c-.033-.007-.06-.016-.09-.024l.017.048Z" fill="#1C3326"/>
    <path id="Path_421" data-name="Path 421" d="M365.639,206.7q-.114-.3-.223-.608C365.177,206.417,365.2,206.641,365.639,206.7Z" fill="#1C3326"/>
    <path id="Path_422" data-name="Path 422" d="M365.659,206.743l.012.034c.023-.022.036-.043.062-.065-.036,0-.063-.008-.094-.012.005.015.011.03.017.045Z" fill="#1C3326"/>
    <path id="Path_423" data-name="Path 423" d="M366.718,209.763c-.051-.026-.148.038-.225.062l.151.27.155-.113C366.773,209.9,366.768,209.789,366.718,209.763Z" fill="#1C3326"/>
    <path id="Path_424" data-name="Path 424" d="M369.04,218.909l-.024-.054-.048.081Z" fill="#1C3326"/>
    <path id="Path_425" data-name="Path 425" d="M368.762,218.275c.087.192.171.386.255.579C369.2,218.54,369.341,218.249,368.762,218.275Z" fill="#1C3326"/>
    <path id="Path_426" data-name="Path 426" d="M369.057,218.963q.086.316.168.635C369.43,219.316,369.443,219.085,369.057,218.963Z" fill="#1C3326"/>
    <path id="Path_427" data-name="Path 427" d="M369.043,218.908l-.075.028a.851.851,0,0,1,.089.028C369.052,218.945,369.048,218.926,369.043,218.908Z" fill="#1C3326"/>
    <path id="Path_428" data-name="Path 428" d="M369.6,219.813l-.309-.1C369.339,219.855,369.327,220.118,369.6,219.813Z" fill="#1C3326"/>
    <path id="Path_429" data-name="Path 429" d="M369.289,219.712a.127.127,0,0,0-.048-.073l0,0c0-.014-.008-.029-.011-.043-.018.025-.035.05-.056.075C369.209,219.687,369.249,219.7,369.289,219.712Z" fill="#1C3326"/>
    <path id="Path_430" data-name="Path 430" d="M369.819,223.221l-.02.133.073-.027Z" fill="#1C3326"/>
    <path id="Path_431" data-name="Path 431" d="M369.9,223.421l.141.562A.378.378,0,0,0,369.9,223.421Z" fill="#1C3326"/>
    <path id="Path_432" data-name="Path 432" d="M369.874,223.327l-.075.027a.761.761,0,0,1,.1.066C369.889,223.389,369.882,223.358,369.874,223.327Z" fill="#1C3326"/>
    <path id="Path_433" data-name="Path 433" d="M370.113,224.136c-.018-.026-.034-.053-.052-.08h0c-.006-.025-.012-.049-.019-.074a.7.7,0,0,1-.054.1A.506.506,0,0,1,370.113,224.136Z" fill="#1C3326"/>
    <path id="Path_434" data-name="Path 434" d="M370.476,224.691l-.085-.129a1.264,1.264,0,0,1,.012.155Z" fill="#1C3326"/>
    <path id="Path_435" data-name="Path 435" d="M370.113,224.136c.094.141.186.283.279.426A.5.5,0,0,0,370.113,224.136Z" fill="#1C3326"/>
    <path id="Path_436" data-name="Path 436" d="M370.792,225.372c-.034-.005-.061-.014-.091-.021l.021.045S370.792,225.372,370.792,225.372Z" fill="#1C3326"/>
    <path id="Path_437" data-name="Path 437" d="M370.475,224.691l-.072.025.033.07A.91.91,0,0,1,370.475,224.691Z" fill="#1C3326"/>
    <path id="Path_438" data-name="Path 438" d="M370.7,225.351q-.131-.283-.266-.565C370.329,225.065,370.382,225.27,370.7,225.351Z" fill="#1C3326"/>
    <path id="Path_439" data-name="Path 439" d="M371.064,226.067c-.031-.006-.057-.013-.085-.02.006.015.012.029.017.043Z" fill="#1C3326"/>
    <path id="Path_440" data-name="Path 440" d="M370.789,225.373s-.07.024-.067.022l.018.045C370.756,225.418,370.769,225.4,370.789,225.373Z" fill="#1C3326"/>
    <path id="Path_441" data-name="Path 441" d="M370.979,226.046q-.115-.3-.239-.606C370.495,225.772,370.614,225.959,370.979,226.046Z" fill="#1C3326"/>
    <path id="Path_442" data-name="Path 442" d="M371.26,226.783a.059.059,0,0,0,.006.014c.022-.014.039-.03.063-.044-.033,0-.058-.005-.087-.008l.015.039Z" fill="#1C3326"/>
    <path id="Path_443" data-name="Path 443" d="M371.241,226.746c-.078-.2-.152-.409-.229-.614C370.752,226.47,370.748,226.706,371.241,226.746Z" fill="#1C3326"/>
    <path id="Path_444" data-name="Path 444" d="M371.06,226.068l-.065.022.016.042C371.028,226.111,371.042,226.09,371.06,226.068Z" fill="#1C3326"/>
    <path id="Path_445" data-name="Path 445" d="M371.056,228.086l-.015-.033-.005,0,0-.009c-.022.013-.039.028-.063.041C371,228.084,371.027,228.087,371.056,228.086Z" fill="#1C3326"/>
    <path id="Path_446" data-name="Path 446" d="M371.349,228.728l-.021-.047-.04.068Z" fill="#1C3326"/>
    <path id="Path_447" data-name="Path 447" d="M371.056,228.086c.092.2.181.4.272.6C371.532,228.341,371.579,228.076,371.056,228.086Z" fill="#1C3326"/>
    <path id="Path_448" data-name="Path 448" d="M372.964,234.778l-.309-.124q.1.163.189.33Z" fill="#1C3326"/>
    <path id="Path_449" data-name="Path 449" d="M412.333,191.268h0c.026,0,.044,0,.068,0,0-.005,0-.009,0-.014l-.029-.018a.444.444,0,0,1-.038.036Z" fill="#1C3326"/>
    <path id="Path_450" data-name="Path 450" d="M412.333,191.268Z" fill="#1C3326"/>
    <path id="Path_451" data-name="Path 451" d="M413.213,192.609a1.252,1.252,0,0,0,1.066.7c.137-.549-.285-.718-.655-.923-.236-.573-.408-1.218-1.222-1.124C412.389,191.881,412.9,192.184,413.213,192.609Z" fill="#1C3326"/>
    <path id="Path_452" data-name="Path 452" d="M412.108,190.532c.067-.523-.223-.755-.674-.857C411.387,190.174,411.7,190.388,412.108,190.532Z" fill="#1C3326"/>
    <path id="Path_453" data-name="Path 453" d="M411.361,189.658l.073.017c0-.016,0-.029,0-.046h0c-.014-.01-.023-.022-.036-.032-.013.02-.023.04-.039.061Z" fill="#1C3326"/>
    <path id="Path_454" data-name="Path 454" d="M430.034,208.964l.047.028h0c.018-.022.03-.045.047-.068-.026-.006-.051-.013-.08-.017C430.044,208.925,430.039,208.945,430.034,208.964Z" fill="#1C3326"/>
    <path id="Path_455" data-name="Path 455" d="M414.318,193.355c.008-.014.01-.025.019-.04h0c-.02,0-.038,0-.058,0,0,.012,0,.021-.006.033C414.289,193.346,414.3,193.353,414.318,193.355Z" fill="#1C3326"/>
    <path id="Path_456" data-name="Path 456" d="M414.893,194.319l.027-.014a.173.173,0,0,1-.027.014c.109.676.676.884,1.179,1.158.107.677.687.872,1.18,1.155.138.653.7.87,1.2,1.148a5.875,5.875,0,0,0,1.887,2.082c.129.586.694.815,1.018,1.241l.711.923.593-.271c-.052-.459-.395-.69-.726-.932-.1-.546-.542-.832-.886-1.194L418.97,197.5h0l-1.2-1.147h0l-1.239-1.113-1.169-1.155h0a1.472,1.472,0,0,0-1.045-.732C413.964,193.979,414.593,194.058,414.893,194.319Z" fill="#1C3326"/>
    <path id="Path_457" data-name="Path 457" d="M410.426,186.883a.4.4,0,0,1,.022-.053l-.014-.005-.046.022C410.4,186.858,410.412,186.871,410.426,186.883Z" fill="#1C3326"/>
    <path id="Path_458" data-name="Path 458" d="M410.639,187.5a.569.569,0,0,0-.214-.617A.4.4,0,0,0,410.639,187.5Z" fill="#1C3326"/>
    <path id="Path_459" data-name="Path 459" d="M410.891,188.2a.573.573,0,0,0-.215-.614A.4.4,0,0,0,410.891,188.2Z" fill="#1C3326"/>
    <path id="Path_460" data-name="Path 460" d="M410.676,187.589c.01-.02.012-.036.024-.057a.675.675,0,0,1-.06-.032c0,.017,0,.031-.008.049C410.649,187.561,410.66,187.576,410.676,187.589Z" fill="#1C3326"/>
    <path id="Path_461" data-name="Path 461" d="M411.152,188.914c.225-.319.025-.49-.232-.641C410.687,188.593,410.852,188.777,411.152,188.914Z" fill="#1C3326"/>
    <path id="Path_462" data-name="Path 462" d="M410.921,188.273c.01-.013.016-.026.027-.04-.023-.009-.035-.021-.057-.031,0,.017,0,.031-.008.048Z" fill="#1C3326"/>
    <path id="Path_463" data-name="Path 463" d="M411.176,188.974c.005-.015,0-.028.01-.043h0l-.034-.016c-.009.013-.014.024-.024.037A.515.515,0,0,1,411.176,188.974Z" fill="#1C3326"/>
    <path id="Path_464" data-name="Path 464" d="M411.4,189.6c.185-.294.073-.489-.224-.623A.518.518,0,0,0,411.4,189.6Z" fill="#1C3326"/>
    <path id="Path_465" data-name="Path 465" d="M412.137,190.591c.01-.013.015-.025.026-.039-.019-.006-.037-.014-.056-.021,0,.014,0,.025,0,.04S412.127,190.585,412.137,190.591Z" fill="#1C3326"/>
    <path id="Path_466" data-name="Path 466" d="M412.372,191.232c.46-.39.016-.484-.235-.641C411.9,190.911,412.123,191.077,412.372,191.232Z" fill="#1C3326"/>
    <path id="Path_467" data-name="Path 467" d="M425.183,198.9c-.051-.462-.392-.7-.73-.935-.05-.457-.388-.689-.723-.923-.2-.428-.429-1.133-.931-.819-.673.42.15.738.353,1.092h0l.721.924h0l.721.924h0c.187.219.287.667.68.455C425.721,199.375,425.357,199.122,425.183,198.9Z" fill="#1C3326"/>
    <path id="Path_468" data-name="Path 468" d="M425.722,200.674c.085.272.07.738.513.548.464-.2.092-.479-.071-.706-.083-.271-.068-.734-.51-.545C425.194,200.167,425.558,200.447,425.722,200.674Z" fill="#1C3326"/>
    <path id="Path_469" data-name="Path 469" d="M426.706,202.284a.66.66,0,0,0,.3.69c.05.343.141.681.583.492.077-.033,0-.424-.007-.649l-.494-.663c-.052-.275,0-.743-.454-.558s-.1.468.076.688Z" fill="#1C3326"/>
    <path id="Path_470" data-name="Path 470" d="M427.994,204.018c-.035-.027-.145.042-.221.068l.222.306.244-.081A1.631,1.631,0,0,0,427.994,204.018Z" fill="#1C3326"/>
    <path id="Path_471" data-name="Path 471" d="M423.207,203.542l.555,1.019.609-.268c.009-.45-.306-.718-.57-1.015h0c-.149-.2-.3-.391-.446-.587-.029-.465-.361-.7-.7-.937l-.594.271.619.951Q422.943,203.259,423.207,203.542Z" fill="#1C3326"/>
    <path id="Path_472" data-name="Path 472" d="M429.5,208.157c-.477.056-.29.427-.19.717,0,.322-.038.8.306.819.3.017.339-.423.417-.729q-.2-.118-.4-.241C429.72,208.495,429.694,208.135,429.5,208.157Z" fill="#1C3326"/>
    <path id="Path_473" data-name="Path 473" d="M367.776,87.114a.393.393,0,0,1-.044.037h0c.019,0,.034-.011.052-.015l.024-.029C367.8,87.108,367.787,87.112,367.776,87.114Z" fill="#1C3326"/>
    <path id="Path_474" data-name="Path 474" d="M368.633,86.353c.006.025.005.046.013.072a.333.333,0,0,0,.05.025c.01-.021.025-.037.034-.059C368.7,86.376,368.664,86.365,368.633,86.353Z" fill="#1C3326"/>
    <path id="Path_475" data-name="Path 475" d="M355.255,97.525a1.253,1.253,0,0,0-1.164.375c-.066.067.019.428.066.435a1.469,1.469,0,0,0,1.188-.37C355.316,97.816,355.311,97.536,355.255,97.525Z" fill="#1C3326"/>
    <path id="Path_476" data-name="Path 476" d="M372.42,93.561a1.954,1.954,0,0,0,1.456-.249,40.519,40.519,0,0,1,9.359,0,15.555,15.555,0,0,0-9.549-.678,1.994,1.994,0,0,0-1.5.285c-.419.12-1.258-.118-1.016.653C371.384,94.246,371.994,93.8,372.42,93.561Z" fill="#1C3326"/>
    <path id="Path_477" data-name="Path 477" d="M305.473,68.068c0-.023.007-.042.009-.066h0l-.081-.031c.008.022.017.042.024.065S305.457,68.057,305.473,68.068Z" fill="#1C3326"/>
    <path id="Path_478" data-name="Path 478" d="M286.623,120.042c.015.024.031.045.046.067a.737.737,0,0,0,.041-.1Z" fill="#1C3326"/>
    <path id="Path_479" data-name="Path 479" d="M286.71,120.01a.407.407,0,0,0-.076-.028.585.585,0,0,0-.013.06Z" fill="#1C3326"/>
    <path id="Path_480" data-name="Path 480" d="M306.689,123.114a1.146,1.146,0,0,0-1.072.472.465.465,0,0,0,.446.462,1.334,1.334,0,0,0,1.1-.461C307.024,123.417,307.046,123.128,306.689,123.114Z" fill="#1C3326"/>
    <path id="Path_481" data-name="Path 481" d="M306.133,114.058a54.861,54.861,0,0,1-9.628.527c-1.294-.008-2.675-.06-3.748.978,3.2.127,6.362.071,9.524-.062a11.637,11.637,0,0,0,4.08-.839c.555-.058,1.508-.1,1.31-.689C307.356,113.031,306.658,113.826,306.133,114.058Z" fill="#1C3326"/>
    <path id="Path_482" data-name="Path 482" d="M314.724,109.6c.013.006.023.006.037.013h0c0-.01.008-.02.011-.03-.014-.012-.023-.026-.039-.038A.493.493,0,0,1,314.724,109.6Z" fill="#1C3326"/>
    <path id="Path_483" data-name="Path 483" d="M313.82,110.239a4.021,4.021,0,0,0-1.862,1.411,2.584,2.584,0,0,0-1.652.865.466.466,0,0,0-.589.221,3.623,3.623,0,0,0-.721.18c-.326.155-1.013.16-.735.713.321.638.808.216,1.192-.094l1.048-.382,1.661-.977h0a5.424,5.424,0,0,0,1.9-1.492h0a1.369,1.369,0,0,0,.665-1.087C314.094,109.317,314.054,109.923,313.82,110.239Z" fill="#1C3326"/>
    <path id="Path_484" data-name="Path 484" d="M308.178,122.854h0c-.284.124-.789.094-.659.572.145.532.515.182.8.08a.647.647,0,0,0,.7-.249c-.047-.138-.1-.275-.147-.411Z" fill="#1C3326"/>
    <path id="Path_485" data-name="Path 485" d="M311.029,122.314c-.221-.423-.505-.076-.753.053a.665.665,0,0,0-.7.254.69.69,0,0,0-.71.224c.051.136.1.273.146.411l.818-.057h0l.732-.246h0C310.773,122.774,311.238,122.715,311.029,122.314Z" fill="#1C3326"/>
    <path id="Path_486" data-name="Path 486" d="M360.8,170.333c.007.025.016.045.024.067.011-.028.023-.054.033-.087-.017-.016-.033-.024-.049-.038a.552.552,0,0,0-.008.058Z" fill="#1C3326"/>
    <path id="Path_487" data-name="Path 487" d="M395.429,153.621c0-.02-.009-.04-.009-.04-.031.022-.048.044-.074.065a.736.736,0,0,0,.092.015.422.422,0,0,1,.016-.046l-.034-.034Z" fill="#1C3326"/>
    <path id="Path_488" data-name="Path 488" d="M410.382,161.807l.4-.233c.009-.158.088-.4.015-.459-.241-.207-.4-.045-.447.215A1.939,1.939,0,0,0,410.382,161.807Z" fill="#1C3326"/>
    <path id="Path_489" data-name="Path 489" d="M395.528,158.321l-.043-.036.022.046-.022-.046c-.021.017-.035.034-.055.052a.636.636,0,0,0,.088.02C395.524,158.344,395.523,158.334,395.528,158.321Z" fill="#1C3326"/>
    <path id="Path_490" data-name="Path 490" d="M343.365,132.594c-.032-.011-.216.219-.2.309.056.265.254.258.455.206C343.655,132.878,343.606,132.676,343.365,132.594Z" fill="#1C3326"/>
    <path id="Path_491" data-name="Path 491" d="M343.623,133.109c0,.008,0,.014,0,.022l.032-.019-.032.019a.106.106,0,0,1,.007.011c.02-.016.036-.033.057-.049Z" fill="#1C3326"/>
    <path id="Path_492" data-name="Path 492" d="M402.906,163.31h0c.272-.114.758-.154.639-.517-.149-.454-.589-.453-.981-.175-3.338.979-6.156,5.292-5.728,9.2C398.076,168.167,399.6,165.07,402.906,163.31Z" fill="#1C3326"/>
    <path id="Path_493" data-name="Path 493" d="M393.557,155.059c-.005-.012-.01-.026-.01-.026,0,.016,0,.032,0,.048s.017.02.026.028c0-.014.005-.028.008-.042s-.027-.021-.038-.034Z" fill="#1C3326"/>
    <path id="Path_494" data-name="Path 494" d="M395.144,152.889h0c0,.008-.005.016-.007.023.016.023.025.047.043.07h0c.029-.027.052-.055.078-.082a.918.918,0,0,0-.114-.011Z" fill="#1C3326"/>
    <path id="Path_495" data-name="Path 495" d="M393.094,153.668l-.006-.034c-.006.018-.013.035-.02.052l.031.016h0a.789.789,0,0,0,.162-.028,1.664,1.664,0,0,0-.174-.04Z" fill="#1C3326"/>
    <path id="Path_496" data-name="Path 496" d="M395.41,154.784c.006.016.014.033.019.049l.02-.015c-.014-.017-.025-.036-.039-.053Z" fill="#1C3326"/>
    <path id="Path_497" data-name="Path 497" d="M395.41,154.765h0Z" fill="#1C3326"/>
    <path id="Path_498" data-name="Path 498" d="M391.733,154.16l-.065-.025a.657.657,0,0,0-.069.074c.035,0,.065.011.1.011A.289.289,0,0,0,391.733,154.16Z" fill="#1C3326"/>
    <path id="Path_499" data-name="Path 499" d="M336.643,156.891c.347.205.688.416.719.88l1.1.734C338.234,157.487,337.894,157.191,336.643,156.891Z" fill="#1C3326"/>
    <path id="Path_500" data-name="Path 500" d="M345.387,164.081c.027.032.221-.005.229-.038.12-.466-.323-.658-.509-.975a.528.528,0,0,0-.634-.271c0,.047-.016.111.009.142C344.778,163.324,345.076,163.708,345.387,164.081Z" fill="#1C3326"/>
    <path id="Path_501" data-name="Path 501" d="M338.536,158.557l-.077-.052c.007.034.016.062.023.1.019-.008.036-.012.055-.019a.231.231,0,0,0,0-.026Z" fill="#1C3326"/>
    <path id="Path_502" data-name="Path 502" d="M346.487,165.38c-.505.292.182.592.262.917.145-.063.289-.129.431-.2C347.134,165.661,346.872,165.157,346.487,165.38Z" fill="#1C3326"/>
    <path id="Path_503" data-name="Path 503" d="M344.875,165.363a32.879,32.879,0,0,0-4.787-5.838h0c-.529-.293-.67-1.26-1.551-.942-.034.706.529.921,1.011,1.2a60.713,60.713,0,0,0,4.613,5.87h0c.2.224.26.7.7.5C345.308,165.952,345.035,165.635,344.875,165.363Z" fill="#1C3326"/>
    <path id="Path_504" data-name="Path 504" d="M345.537,166.632a1.622,1.622,0,0,0-.388,0c.028.078.042.212.086.222a1.675,1.675,0,0,0,.388,0C345.6,166.776,345.58,166.642,345.537,166.632Z" fill="#1C3326"/>
    <path id="Path_505" data-name="Path 505" d="M346.462,167.932c-.111-.277-.087-.773-.573-.569-.457.192-.138.549-.032.838h0c.185.225.24.717.669.5C346.98,168.469,346.643,168.179,346.462,167.932Z" fill="#1C3326"/>
    <path id="Path_506" data-name="Path 506" d="M346.971,169.135a1.674,1.674,0,0,0,0,.388c.078-.028.212-.042.222-.086a1.674,1.674,0,0,0,0-.388C347.115,169.077,346.981,169.092,346.971,169.135Z" fill="#1C3326"/>
    <path id="Path_507" data-name="Path 507" d="M328.174,119.843c.366.083.853.114,1.029-.512-.306-.4.208-1.219-.647-1.394-.516-.105-1.106-.033-1.254.579A1.048,1.048,0,0,0,328.174,119.843Z" fill="#1C3326"/>
    <path id="Path_508" data-name="Path 508" d="M331.018,121.369c.2.127.471.266.675-.217-.072-.221-.1-.617-.3-.823-.153-.15-.408.154-.522.374A.47.47,0,0,0,331.018,121.369Z" fill="#1C3326"/>
    <path id="Path_509" data-name="Path 509" d="M324.625,118.276a.478.478,0,0,0,.541-.382c-.005-.244,0-.49-.313-.571a.475.475,0,0,0-.589.268C324.05,117.988,324.264,118.22,324.625,118.276Z" fill="#1C3326"/>
    <path id="Path_510" data-name="Path 510" d="M325.071,112.752c-.5.069-.27.4-.13.67l.322-.118C325.317,113.07,325.267,112.725,325.071,112.752Z" fill="#1C3326"/>
    <path id="Path_511" data-name="Path 511" d="M343.5,117.785a.921.921,0,0,0,.661.978.5.5,0,0,0,.614-.311c.222-.518-.425-.682-.484-1.1h0c.306.082.839.252.861-.038.05-.654-.513-.638-1.006-.561A1.131,1.131,0,0,0,343.5,117.785Z" fill="#1C3326"/>
    <path id="Path_512" data-name="Path 512" d="M344.191,114.013a.8.8,0,0,0,1.06-.311.57.57,0,0,0-.265-.88.735.735,0,0,0-1.091.3A.676.676,0,0,0,344.191,114.013Z" fill="#1C3326"/>
    <path id="Path_513" data-name="Path 513" d="M346.66,111.064c.27.268.456.029.628-.137.287-.278.022-.449-.166-.586a.45.45,0,0,0-.648.065C346.31,110.688,346.479,110.884,346.66,111.064Z" fill="#1C3326"/>
    <path id="Path_514" data-name="Path 514" d="M344.72,123.828c-.249-.41-.545-.545-.867-.1.274.153.544.311.814.47C344.688,124.072,344.77,123.91,344.72,123.828Z" fill="#1C3326"/>
    <path id="Path_515" data-name="Path 515" d="M345.121,125.319a1.674,1.674,0,0,0,0,.388c.078-.028.212-.042.222-.085a1.674,1.674,0,0,0,0-.388C345.265,125.261,345.131,125.275,345.121,125.319Z" fill="#1C3326"/>
    <path id="Path_516" data-name="Path 516" d="M392.641,178.455a2.112,2.112,0,0,0-1,2.277A3.572,3.572,0,0,0,392.641,178.455Z" fill="#1C3326"/>
    <path id="Path_517" data-name="Path 517" d="M391.814,181.616a1.675,1.675,0,0,0-.388,0c.028.078.042.212.085.222a1.622,1.622,0,0,0,.388,0C391.872,181.761,391.857,181.626,391.814,181.616Z" fill="#1C3326"/>
    <path id="Path_518" data-name="Path 518" d="M321.607,103.61c-.628-.222-1.22-.2-1.415.581a.775.775,0,0,0,.6.963c.574.124.956-.258,1.27-.89A.583.583,0,0,0,321.607,103.61Z" fill="#1C3326"/>
    <path id="Path_519" data-name="Path 519" d="M323.931,102.024c.417.151.569-.284.774-.436.366-.325.132-.522-.091-.618-.4-.173-.653.094-.817.414C323.684,101.607,323.636,101.917,323.931,102.024Z" fill="#1C3326"/>
    <path id="Path_520" data-name="Path 520" d="M339.5,103.564c-.565-.129-.605.656-.887,1.049l.5.244c-.051.3-.239.414-.5.287a.284.284,0,0,1-.128-.468c-.131.043-.269.1-.357.055-3.544-1.769-4.972-1.04-5.279,2.709a5.936,5.936,0,0,0-.072.781,2.124,2.124,0,0,0,3.336,1.763,5.365,5.365,0,0,0,2.737-3.639c.093-.506,0-1.063.59-1.337a.773.773,0,0,0,.251.055.7.7,0,0,0,.218-.109C339.593,104.524,340.071,103.693,339.5,103.564Z" fill="#1C3326"/>
    <path id="Path_521" data-name="Path 521" d="M338.616,104.613l-.061-.03a.578.578,0,0,0-.069.094,1.071,1.071,0,0,1,.109-.031C338.6,104.636,338.608,104.623,338.616,104.613Z" fill="#1C3326"/>
    <path id="Path_522" data-name="Path 522" d="M386.15,87.868c1.233-.816,2.449-1.644,2.4-3.5l-2.659,2.952h0c-.268.3-.538.6-.807.906.037.107.075.214.114.32C385.708,88.589,385.908,88.2,386.15,87.868Z" fill="#1C3326"/>
    <path id="Path_523" data-name="Path 523" d="M384.605,88.791c.109.18.442-.027.593-.246-.039-.106-.076-.213-.114-.32C384.746,88.272,384.317,88.318,384.605,88.791Z" fill="#1C3326"/>
    <path id="Path_524" data-name="Path 524" d="M351.983,119.064a.5.5,0,0,0-.013.052c.015.011.026.024.042.034Z" fill="#1C3326"/>
    <path id="Path_525" data-name="Path 525" d="M239.658,99.617c6.768-4.163,13.908-5.645,21.626-2.966C255.249,92.752,244.235,94.28,239.658,99.617Z" fill="#1C3326"/>
    <path id="Path_526" data-name="Path 526" d="M263.854,111.494l.032,0v0c.03-.007.058-.02.087-.029-.04-.015-.078-.031-.119-.045A.742.742,0,0,1,263.854,111.494Z" fill="#1C3326"/>
    <path id="Path_527" data-name="Path 527" d="M262.04,112.283c.575.227,1.018-.077,1.479-.273a.5.5,0,0,0,.336-.516C263.187,111.593,262.394,111.4,262.04,112.283Z" fill="#1C3326"/>
    <path id="Path_528" data-name="Path 528" d="M261.115,112.124c-.05-.031-.15.019-.228.033.022.076.023.188.073.219s.15-.018.228-.033C261.166,112.267,261.165,112.155,261.115,112.124Z" fill="#1C3326"/>
    <path id="Path_529" data-name="Path 529" d="M258.364,112.252l-.128-.067,0-.007c.005.026,0,.046.007.071h.016A.922.922,0,0,0,258.364,112.252Z" fill="#1C3326"/>
    <path id="Path_530" data-name="Path 530" d="M258.553,112.337l.007-.008a.326.326,0,0,1-.082-.049.19.19,0,0,0-.114-.027A.722.722,0,0,0,258.553,112.337Z" fill="#1C3326"/>
    <path id="Path_531" data-name="Path 531" d="M258.559,112.329c.183.072.162-.239,0,0Z" fill="#1C3326"/>
    <path id="Path_532" data-name="Path 532" d="M229.786,91.762c2.145.179,4.306.064,6.442.423A6.851,6.851,0,0,0,229.786,91.762Z" fill="#1C3326"/>
    <path id="Path_533" data-name="Path 533" d="M229.247,91.673c-.884.363-2.081-.286-2.918,1.066A3.91,3.91,0,0,0,229.247,91.673Z" fill="#1C3326"/>
    <path id="Path_534" data-name="Path 534" d="M229.709,97.606a2.372,2.372,0,0,0,2.7-.269A3.015,3.015,0,0,0,229.709,97.606Z" fill="#1C3326"/>
    <path id="Path_535" data-name="Path 535" d="M233.029,97.07c-.158.105-.194.267-.007.392.4.269.774.067,1.672-.443-.373.2-.344.036-.534-.089A.957.957,0,0,0,233.029,97.07Z" fill="#1C3326"/>
    <path id="Path_536" data-name="Path 536" d="M224.544,93.354a1.473,1.473,0,0,0,.344-.008c-.023-.07-.047-.141-.075-.227l-.341.034C224.5,93.223,224.509,93.347,224.544,93.354Z" fill="#1C3326"/>
    <path id="Path_537" data-name="Path 537" d="M225.838,92.655l-.06-.235-.234.065.134.278Z" fill="#1C3326"/>
    <path id="Path_538" data-name="Path 538" d="M228.925,97.484a1.675,1.675,0,0,0,0,.388c.078-.028.212-.042.222-.085a1.622,1.622,0,0,0,0-.388C229.07,97.426,228.935,97.441,228.925,97.484Z" fill="#1C3326"/>
    <path id="Path_539" data-name="Path 539" d="M227.93,97.548c-.049-.028-.139.015-.211.026.021.07.042.14.063.207l.23-.037C227.986,97.676,227.979,97.576,227.93,97.548Z" fill="#1C3326"/>
    <path id="Path_540" data-name="Path 540" d="M370.269,179.4a16.61,16.61,0,0,0-9.507,5.541c-.239.273-.8.5-.281,1,.518.182.854-.209,1.1-.5,2.5-2.951,5.868-4.237,9.482-5.112,1.335-.323,2.772-.441,3.833-1.49,3.806-1.675,5.908-4.918,7.753-8.408-2.641,2.536-4.608,5.755-7.875,7.635C373.272,178.518,371.8,179.092,370.269,179.4Z" fill="#1C3326"/>
    <path id="Path_541" data-name="Path 541" d="M374.9,173a14.928,14.928,0,0,0,5.458-5.058C378.514,168.851,375.481,171.661,374.9,173Z" fill="#1C3326"/>
    <path id="Path_542" data-name="Path 542" d="M374.475,173.2a4.237,4.237,0,0,0-3.111,2.323A4.943,4.943,0,0,0,374.475,173.2Z" fill="#1C3326"/>
    <path id="Path_543" data-name="Path 543" d="M373.77,170.993q-.178-.369-.356-.74c-.087-.438-.072-.8.5-.735l.215-.437c-1.221-.574-1.779.159-1.862,1.186C372.174,171.441,373.13,171.02,373.77,170.993Z" fill="#1C3326"/>
    <path id="Path_544" data-name="Path 544" d="M373.965,169.521c-.018,0-.031,0-.049,0s-.01.02-.014.03Z" fill="#1C3326"/>
    <path id="Path_545" data-name="Path 545" d="M371.021,173.172c.494.328.753-.064,1-.345.18-.29.158-.568-.073-.7-.461-.269-.787.057-1.038.385A.452.452,0,0,0,371.021,173.172Z" fill="#1C3326"/>
    <path id="Path_546" data-name="Path 546" d="M358.084,184.119a.964.964,0,0,0,1.076-.436.577.577,0,0,0-.257-.844c-.568-.249-.936.053-1.231.506A.576.576,0,0,0,358.084,184.119Z" fill="#1C3326"/>
    <path id="Path_547" data-name="Path 547" d="M364.981,178.673c3.82-1.046,5.132-1.758,5.945-3.224-.085-.02-.187-.082-.252-.055q-2.99,1.251-5.971,2.518c-.691.1-1.515-.048-1.927,1.033A2.48,2.48,0,0,0,364.981,178.673Z" fill="#1C3326"/>
    <path id="Path_548" data-name="Path 548" d="M351.089,172.59a.559.559,0,0,0,.417.788c.724.06.431-.774.8-1.069a.406.406,0,0,0,.09-.19C351.755,171.663,351.33,171.887,351.089,172.59Z" fill="#1C3326"/>
    <path id="Path_549" data-name="Path 549" d="M352.4,172.078c-.005.013-.009.027-.014.041.014.01.027.016.042.027,0-.019.006-.031.007-.048s-.023-.012-.035-.02Z" fill="#1C3326"/>
    <path id="Path_550" data-name="Path 550" d="M382.5,165.948a2.679,2.679,0,0,0-1.851,1.815C381.735,167.459,382.333,167,382.5,165.948Z" fill="#1C3326"/>
    <path id="Path_551" data-name="Path 551" d="M373.992,169.7a.5.5,0,0,0-.027-.182l-.064.026A.483.483,0,0,0,373.992,169.7Z" fill="#1C3326"/>
    <path id="Path_552" data-name="Path 552" d="M374.793,169.8c-.245-.111-.592.138-.8-.1-.016.317-.451.318-.579.55l.357.74a1.753,1.753,0,0,0,1.448-.619h0c.356-.307.552-.686.117-1.021-.309-.238-.622-.866-1.145-.282C374.438,169.275,374.891,169.306,374.793,169.8Z" fill="#1C3326"/>
    <path id="Path_553" data-name="Path 553" d="M374.19,169.071c-.012-.01-.027-.019-.038-.03l-.02.041.035.015A.285.285,0,0,1,374.19,169.071Z" fill="#1C3326"/>
    <path id="Path_554" data-name="Path 554" d="M360.243,186.2c-.2-.377-.521-.2-.74.094l-3.856,2.668h0l-1.291.731c-.284.063-.725,0-.62.475.1.462.468.265.759.18a2.08,2.08,0,0,0,1.408-.757,9.422,9.422,0,0,0,3.785-2.453C359.974,186.876,360.5,186.685,360.243,186.2Z" fill="#1C3326"/>
    <path id="Path_555" data-name="Path 555" d="M352.817,171.851c-.237-.077-.358.023-.376.247.175.112.347.138.486-.064C352.944,172.007,352.871,171.868,352.817,171.851Z" fill="#1C3326"/>
    <path id="Path_556" data-name="Path 556" d="M351.9,190.7h0c-.257.138-.67.24-.348.628.142.172.417,0,.571-.186.261-.038.728.091.557-.4C352.53,190.329,352.165,190.657,351.9,190.7Z" fill="#1C3326"/>
    <path id="Path_557" data-name="Path 557" d="M407.588,207.5a33.156,33.156,0,0,0,7.573,3.566L418.775,213h0c.315.936,1.433.988,1.914,1.741h0a1.49,1.49,0,0,0,1.673.71,2.2,2.2,0,0,0-1.136-.986c-.287-.958-1.393-1-1.908-1.7a14.808,14.808,0,0,0-3.963-2.09,2.341,2.341,0,0,0-1.582-1.25c-2.15-.415-3.95-1.684-5.993-2.347a12.9,12.9,0,0,0-4.678-2.944A13.557,13.557,0,0,0,407.588,207.5Z" fill="#1C3326"/>
    <path id="Path_558" data-name="Path 558" d="M400.9,199.635l.015.047h0l.032.04c.015-.023.021-.043.038-.067C400.959,199.649,400.933,199.642,400.9,199.635Z" fill="#1C3326"/>
    <path id="Path_559" data-name="Path 559" d="M400.953,199.721c-.552.834.155,1.279.594,2.044A2.315,2.315,0,0,0,400.953,199.721Z" fill="#1C3326"/>
    <path id="Path_560" data-name="Path 560" d="M402.328,202.753a.656.656,0,0,0,.476.753c.058.023.3-.207.284-.236A.954.954,0,0,0,402.328,202.753Z" fill="#1C3326"/>
    <path id="Path_561" data-name="Path 561" d="M402.291,202.7c-.01.012-.018.025-.028.036h0c.023,0,.043.01.065.014,0-.013,0-.022,0-.035C402.316,202.714,402.3,202.708,402.291,202.7Z" fill="#1C3326"/>
    <path id="Path_562" data-name="Path 562" d="M404.606,197.29a.242.242,0,0,0,.226.062c.452-.308.154-.674.071-1.024A.681.681,0,0,0,404.606,197.29Z" fill="#1C3326"/>
    <path id="Path_563" data-name="Path 563" d="M404.9,196.327c.021-.011.039-.023.062-.034h.005l-.054-.037c-.006.018-.013.033-.018.052S404.9,196.321,404.9,196.327Z" fill="#1C3326"/>
    <path id="Path_564" data-name="Path 564" d="M405.487,198.448a.47.47,0,0,0-.348-.111.413.413,0,0,0,.128.56C405.456,198.808,405.614,198.688,405.487,198.448Z" fill="#1C3326"/>
    <path id="Path_565" data-name="Path 565" d="M400.67,198.928q-.117-.3-.242-.606C400.185,198.655,400.31,198.84,400.67,198.928Z" fill="#1C3326"/>
    <path id="Path_566" data-name="Path 566" d="M400.755,198.949c-.031-.006-.057-.014-.085-.02.006.014.012.029.017.043S400.755,198.949,400.755,198.949Z" fill="#1C3326"/>
    <path id="Path_567" data-name="Path 567" d="M400.687,198.971c0,.013.009.027.013.041.017-.021.031-.04.051-.062Z" fill="#1C3326"/>
    <path id="Path_568" data-name="Path 568" d="M400.9,199.635c-.068-.207-.134-.416-.2-.623C400.43,199.337,400.493,199.546,400.9,199.635Z" fill="#1C3326"/>
    <path id="Path_569" data-name="Path 569" d="M402.309,202.181a.417.417,0,0,0-.351.081c-.046.251.123.37.333.442C402.432,202.535,402.514,202.349,402.309,202.181Z" fill="#1C3326"/>
    <path id="Path_570" data-name="Path 570" d="M370.092,190.768a.692.692,0,0,0-.7.249c.033.239.065.479.1.718l.7-.249h0l.748-.309c2.062-.8,4.316-1.321,5.42-3.56a32.885,32.885,0,0,0-5.573,2.9A.688.688,0,0,0,370.092,190.768Z" fill="#1C3326"/>
    <path id="Path_571" data-name="Path 571" d="M377.063,186.956c-.373.025-.517.286-.612.592.4.259.539-.048.661-.355A.369.369,0,0,0,377.063,186.956Z" fill="#1C3326"/>
    <path id="Path_572" data-name="Path 572" d="M376.413,187.525c-.015.032-.033.06-.048.091.024-.008.047-.018.072-.025,0-.015.009-.029.014-.044-.013-.008-.024-.012-.038-.022Z" fill="#1C3326"/>
    <path id="Path_573" data-name="Path 573" d="M368.7,191.267a579.394,579.394,0,0,1-1.4.5.681.681,0,0,0-.7.25l-1.563.3h0c-.254.057-.551.22-.485.446.128.441.479.335.792.148a2.829,2.829,0,0,0,1.56-.294h0l.538-.192.706-.251.682-.229.664-.206c-.033-.24-.065-.479-.1-.718A.691.691,0,0,0,368.7,191.267Z" fill="#1C3326"/>
    <path id="Path_574" data-name="Path 574" d="M397.216,189.025c.144-.024.165-.14.088-.281l-.374.136C397.025,188.932,397.131,189.039,397.216,189.025Z" fill="#1C3326"/>
    <path id="Path_575" data-name="Path 575" d="M397.3,188.744l.006,0-.02-.03.019.028c0-.015-.008-.027-.012-.041s-.02-.012-.03-.021A.514.514,0,0,1,397.3,188.744Z" fill="#1C3326"/>
  </g>
</svg>
